<svg width="21" height="21" viewBox="0 0 21 21" fill="none" xmlns="http://www.w3.org/2000/svg">
<path d="M10.6995 20.9858C8.04819 20.9829 5.50634 19.9284 3.63161 18.0537C1.75688 16.179 0.702374 13.6371 0.699463 10.9858L0.699463 10.7858C0.738847 8.81703 1.35864 6.90366 2.48112 5.28569C3.60361 3.66772 5.1788 2.41717 7.00918 1.69087C8.83956 0.964567 10.8436 0.794846 12.7701 1.20299C14.6965 1.61113 16.4596 2.57897 17.8382 3.98513C19.2168 5.39129 20.1495 7.17318 20.5194 9.10733C20.8894 11.0415 20.68 13.0418 19.9176 14.8574C19.1552 16.6731 17.8737 18.2232 16.2338 19.3134C14.5939 20.4037 12.6687 20.9854 10.6995 20.9858ZM6.10946 10.5758L4.69946 11.9858L8.69946 15.9858L16.6995 7.98584L15.2895 6.56584L8.69946 13.1558L6.10946 10.5758Z" fill="#3384FB"/>
</svg>
