<svg width="21" height="19" viewBox="0 0 21 19" fill="none" xmlns="http://www.w3.org/2000/svg">
<path d="M20.8672 18.0654H0.867188V0.0654297H10.8672V4.06543H20.8672V18.0654ZM10.8672 14.0654V16.0654H18.8672V6.06543H10.8672V8.06543H12.8672V10.0654H10.8672V12.0654H12.8672V14.0654H10.8672ZM6.86719 14.0654V16.0654H8.86719V14.0654H6.86719ZM2.86719 14.0654V16.0654H4.86719V14.0654H2.86719ZM6.86719 10.0654V12.0654H8.86719V10.0654H6.86719ZM2.86719 10.0654V12.0654H4.86719V10.0654H2.86719ZM6.86719 6.06543V8.06543H8.86719V6.06543H6.86719ZM2.86719 6.06543V8.06543H4.86719V6.06543H2.86719ZM6.86719 2.06543V4.06543H8.86719V2.06543H6.86719ZM2.86719 2.06543V4.06543H4.86719V2.06543H2.86719ZM16.8672 14.0654H14.8672V12.0654H16.8672V14.0654ZM16.8672 10.0654H14.8672V8.06543H16.8672V10.0654Z" fill="#3384FB"/>
</svg>
