<svg width="21" height="21" viewBox="0 0 21 21" fill="none" xmlns="http://www.w3.org/2000/svg">
<path d="M10.8672 20.354C8.88938 20.354 6.95596 19.7675 5.31147 18.6687C3.66698 17.5699 2.3853 16.0082 1.62842 14.1809C0.871546 12.3537 0.673478 10.3429 1.05933 8.40308C1.44518 6.46327 2.39762 4.68149 3.79615 3.28296C5.19467 1.88444 6.97645 0.931999 8.91626 0.546147C10.8561 0.160295 12.8668 0.358362 14.694 1.11524C16.5213 1.87211 18.0831 3.15385 19.1819 4.79834C20.2807 6.44284 20.8672 8.37619 20.8672 10.354C20.8643 13.0053 19.8098 15.5471 17.9351 17.4219C16.0603 19.2966 13.5185 20.3511 10.8672 20.354ZM10.8672 2.35401C9.28494 2.35401 7.7382 2.8231 6.42261 3.70215C5.10702 4.5812 4.08164 5.83068 3.47614 7.29248C2.87064 8.75429 2.71226 10.363 3.02094 11.9148C3.32962 13.4666 4.09151 14.8919 5.21033 16.0107C6.32915 17.1296 7.75461 17.8915 9.30646 18.2002C10.8583 18.5089 12.4668 18.3506 13.9287 17.7451C15.3905 17.1396 16.6399 16.1142 17.5189 14.7986C18.398 13.483 18.8672 11.9363 18.8672 10.354C18.8648 8.23301 18.0212 6.19949 16.5214 4.69971C15.0217 3.19994 12.9882 2.35639 10.8672 2.35401ZM12.1072 17.354H9.76722V15.6541C9.03852 15.521 8.36143 15.187 7.8122 14.6899C7.26189 14.164 6.93889 13.4439 6.91217 12.6831H8.63221C8.70521 13.4321 9.16621 14.324 10.9522 14.324C12.9522 14.324 13.0522 13.1661 13.0522 12.9341C13.0522 12.3201 12.7862 11.553 10.7122 11.064C8.21216 10.464 7.05317 9.44598 7.05317 7.85498C7.05317 6.47698 8.0952 5.39995 9.7732 5.04395V3.35401H12.1032V5.06397C12.7924 5.2056 13.4134 5.57606 13.8655 6.11524C14.3175 6.65442 14.574 7.3306 14.5932 8.03394H12.8832C12.8372 6.93394 12.2032 6.39405 10.9432 6.39405C9.66718 6.39405 8.8432 6.955 8.8432 7.823C8.8432 8.597 9.49917 9.06492 11.1832 9.49292C12.9832 9.96392 14.8332 10.7401 14.8422 12.9131C14.8499 13.2653 14.7827 13.6151 14.6447 13.9392C14.5068 14.2634 14.3014 14.5544 14.0422 14.793C13.4934 15.2628 12.8249 15.571 12.1112 15.6831V17.354H12.1072Z" fill="#3384FB"/>
</svg>
