<svg width="23" height="13" viewBox="0 0 23 13" fill="none" xmlns="http://www.w3.org/2000/svg">
<path d="M20.8672 0.354004C20.3372 0.355587 19.8294 0.566798 19.4547 0.941528C19.08 1.31626 18.8688 1.82406 18.8672 2.354C18.8645 2.52657 18.8881 2.69855 18.9372 2.86401L15.3872 6.42401C15.0468 6.33066 14.6876 6.33066 14.3472 6.42401L11.7972 3.87402C11.8463 3.70515 11.8699 3.52986 11.8672 3.354C11.8672 2.82357 11.6565 2.31489 11.2814 1.93982C10.9063 1.56475 10.3976 1.354 9.86719 1.354C9.33676 1.354 8.82805 1.56475 8.45298 1.93982C8.0779 2.31489 7.86719 2.82357 7.86719 3.354C7.86449 3.52986 7.88809 3.70515 7.9372 3.87402L3.3772 8.42401C3.21174 8.37492 3.03976 8.35131 2.86719 8.354C2.47163 8.354 2.08494 8.47128 1.75605 8.69104C1.42715 8.9108 1.17082 9.22317 1.01944 9.58862C0.868068 9.95407 0.828442 10.3562 0.905613 10.7442C0.982783 11.1322 1.17327 11.4885 1.45298 11.7682C1.73268 12.0479 2.08906 12.2384 2.47702 12.3156C2.86499 12.3927 3.26712 12.3532 3.63257 12.2018C3.99802 12.0504 4.31036 11.794 4.53012 11.4651C4.74989 11.1363 4.86719 10.7496 4.86719 10.354C4.86988 10.1814 4.84627 10.0095 4.79718 9.84399L9.3472 5.284C9.68759 5.3773 10.0468 5.3773 10.3872 5.284L12.9372 7.83398C12.8881 8.00286 12.8645 8.17815 12.8672 8.354C12.8672 8.88444 13.0779 9.39312 13.453 9.76819C13.828 10.1433 14.3368 10.354 14.8672 10.354C15.3976 10.354 15.9063 10.1433 16.2814 9.76819C16.6565 9.39312 16.8672 8.88444 16.8672 8.354C16.8698 8.17816 16.8462 8.00288 16.7972 7.83398L20.3572 4.284C20.5226 4.33308 20.6946 4.35669 20.8672 4.354C21.3976 4.354 21.9063 4.14326 22.2814 3.76819C22.6565 3.39312 22.8672 2.88444 22.8672 2.354C22.8672 1.82357 22.6565 1.31489 22.2814 0.939819C21.9063 0.564747 21.3976 0.354004 20.8672 0.354004Z" fill="#3384FB"/>
</svg>
