<svg width="19" height="21" viewBox="0 0 19 21" fill="none" xmlns="http://www.w3.org/2000/svg">
<path d="M16.8991 20.5544H2.83016C2.6956 20.5546 2.5612 20.5445 2.42817 20.5244C2.04303 20.4439 1.69016 20.2527 1.41325 19.9744C1.23089 19.7893 1.08435 19.5724 0.981076 19.3344C0.87689 19.0873 0.822296 18.8223 0.820316 18.5544V4.5544C0.81983 4.28943 0.874552 4.02724 0.981076 3.78439C1.10834 3.48486 1.30633 3.2203 1.55824 3.01314C1.81016 2.80598 2.10857 2.66233 2.42817 2.59439C2.5601 2.56528 2.69505 2.55186 2.83016 2.5544H7.03073C7.2365 1.96984 7.61972 1.46335 8.12741 1.10501C8.6351 0.746673 9.24218 0.554199 9.86462 0.554199C10.4871 0.554199 11.0941 0.746673 11.6018 1.10501C12.1095 1.46335 12.4927 1.96984 12.6985 2.5544H16.8991C17.4321 2.5544 17.9433 2.76511 18.3202 3.14018C18.6971 3.51526 18.9089 4.02396 18.9089 4.5544V18.5544C18.9089 19.0848 18.6971 19.5935 18.3202 19.9686C17.9433 20.3437 17.4321 20.5544 16.8991 20.5544ZM2.83016 4.5544V18.5544H16.8991V4.5544H2.83016ZM9.86462 2.3044C9.71555 2.3044 9.56983 2.34839 9.44588 2.4308C9.32194 2.51321 9.22532 2.63034 9.16828 2.76738C9.11123 2.90442 9.09632 3.05523 9.1254 3.20071C9.15448 3.3462 9.22627 3.47984 9.33167 3.58473C9.43708 3.68962 9.5714 3.76105 9.7176 3.78999C9.8638 3.81893 10.0153 3.80408 10.153 3.74731C10.2907 3.69055 10.4085 3.59441 10.4913 3.47107C10.5741 3.34773 10.6183 3.20273 10.6183 3.0544C10.618 2.85557 10.5385 2.66495 10.3973 2.52435C10.256 2.38376 10.0644 2.30466 9.86462 2.3044ZM7.85477 16.5544L3.83508 12.5544L5.25102 11.1454L7.85477 13.7244L14.4772 7.1344L15.8942 8.5544L7.85477 16.5544Z" fill="#3384FB"/>
</svg>
