<svg width="600" height="335" viewBox="0 0 600 335" fill="none" xmlns="http://www.w3.org/2000/svg">
<g filter="url(#filter0_d_1299_3342)">
<rect x="23.0938" y="20.4114" width="360.055" height="256.035" rx="8" fill="white"/>
</g>
<circle cx="116.43" cy="168.493" r="64.5234" fill="#F7FBFF"/>
<path d="M99.3916 175.993V163.805L96.8616 164.399V162.243L100.58 160.593H102.318V175.993H99.3916ZM110.826 176.257C109.696 176.257 108.721 176.059 107.9 175.663C107.093 175.267 106.455 174.725 105.986 174.035C105.531 173.331 105.267 172.539 105.194 171.659H107.944C108.076 172.29 108.398 172.818 108.912 173.243C109.425 173.654 110.063 173.859 110.826 173.859C111.647 173.859 112.314 173.559 112.828 172.957C113.356 172.356 113.62 171.608 113.62 170.713C113.62 169.789 113.356 169.056 112.828 168.513C112.314 167.971 111.662 167.699 110.87 167.699C110.21 167.699 109.638 167.861 109.154 168.183C108.67 168.506 108.325 168.909 108.12 169.393H105.414L106.734 160.593H115.27V163.057H108.846L108.142 166.621C108.464 166.269 108.904 165.983 109.462 165.763C110.019 165.529 110.642 165.411 111.332 165.411C112.432 165.411 113.348 165.661 114.082 166.159C114.815 166.643 115.372 167.289 115.754 168.095C116.135 168.887 116.326 169.753 116.326 170.691C116.326 171.762 116.091 172.715 115.622 173.551C115.167 174.387 114.522 175.047 113.686 175.531C112.864 176.015 111.911 176.257 110.826 176.257ZM122.114 168.161C121.41 168.161 120.772 168.007 120.2 167.699C119.628 167.377 119.174 166.922 118.836 166.335C118.499 165.749 118.33 165.052 118.33 164.245C118.33 163.439 118.499 162.742 118.836 162.155C119.174 161.569 119.628 161.121 120.2 160.813C120.772 160.491 121.418 160.329 122.136 160.329C122.84 160.329 123.471 160.491 124.028 160.813C124.6 161.121 125.055 161.569 125.392 162.155C125.73 162.742 125.898 163.439 125.898 164.245C125.898 165.052 125.73 165.749 125.392 166.335C125.055 166.922 124.6 167.377 124.028 167.699C123.456 168.007 122.818 168.161 122.114 168.161ZM121.278 175.993L129.968 160.593H132.718L124.028 175.993H121.278ZM122.114 166.203C122.54 166.203 122.906 166.042 123.214 165.719C123.522 165.382 123.676 164.891 123.676 164.245C123.676 163.6 123.522 163.109 123.214 162.771C122.921 162.434 122.554 162.265 122.114 162.265C121.674 162.265 121.3 162.434 120.992 162.771C120.699 163.109 120.552 163.6 120.552 164.245C120.552 164.891 120.699 165.382 120.992 165.719C121.3 166.042 121.674 166.203 122.114 166.203ZM131.97 176.257C131.266 176.257 130.628 176.103 130.056 175.795C129.484 175.473 129.03 175.018 128.692 174.431C128.355 173.845 128.186 173.148 128.186 172.341C128.186 171.535 128.355 170.845 128.692 170.273C129.03 169.687 129.484 169.239 130.056 168.931C130.628 168.609 131.274 168.447 131.992 168.447C132.696 168.447 133.327 168.609 133.884 168.931C134.456 169.239 134.911 169.687 135.248 170.273C135.586 170.845 135.754 171.535 135.754 172.341C135.754 173.148 135.586 173.845 135.248 174.431C134.911 175.018 134.456 175.473 133.884 175.795C133.327 176.103 132.689 176.257 131.97 176.257ZM131.97 174.299C132.41 174.299 132.777 174.138 133.07 173.815C133.378 173.478 133.532 172.987 133.532 172.341C133.532 171.696 133.378 171.205 133.07 170.867C132.777 170.53 132.41 170.361 131.97 170.361C131.53 170.361 131.156 170.53 130.848 170.867C130.555 171.205 130.408 171.696 130.408 172.341C130.408 172.987 130.555 173.478 130.848 173.815C131.156 174.138 131.53 174.299 131.97 174.299Z" fill="#091832"/>
<path d="M72.6987 192.734C68.4806 185.124 66.3212 176.546 66.4339 167.846C66.5466 159.146 68.9275 150.626 73.3413 143.128C77.755 135.63 84.0489 129.414 91.601 125.094C99.153 120.773 107.702 118.498 116.402 118.493L116.41 133.493C110.32 133.497 104.336 135.089 99.0496 138.114C93.7632 141.138 89.3574 145.489 86.2678 150.738C83.1781 155.986 81.5115 161.95 81.4326 168.04C81.3537 174.13 82.8653 180.135 85.818 185.462L72.6987 192.734Z" fill="#EDF2F7"/>
<path d="M161.745 189.624C157.848 197.981 151.716 205.098 144.027 210.188C136.337 215.277 127.39 218.141 118.175 218.463C108.959 218.785 99.8342 216.552 91.8085 212.011C83.7829 207.471 77.1692 200.799 72.6987 192.734L85.818 185.462C88.9473 191.107 93.5769 195.777 99.1949 198.956C104.813 202.134 111.2 203.697 117.651 203.472C124.102 203.247 130.365 201.242 135.747 197.679C141.13 194.117 145.423 189.135 148.15 183.285L161.745 189.624Z" fill="#3384FB"/>
<path d="M116.43 118.493C124.852 118.493 133.137 120.621 140.517 124.678C147.898 128.735 154.133 134.591 158.646 141.702C163.159 148.813 165.802 156.949 166.331 165.354C166.86 173.759 165.257 182.162 161.671 189.782L148.099 183.396C150.609 178.061 151.731 172.179 151.361 166.296C150.99 160.412 149.14 154.717 145.981 149.739C142.822 144.762 138.457 140.663 133.291 137.823C128.125 134.983 122.325 133.493 116.43 133.493V118.493Z" fill="#091832"/>
<rect x="43.3594" y="39.9983" width="60" height="10" rx="5" fill="#F2F4F7"/>
<rect x="265.68" y="39.9983" width="90.1797" height="10" rx="5" fill="#3384FB"/>
<rect x="262.93" y="99.4983" width="60" height="10" rx="5" fill="#F2F4F7"/>
<rect x="262.93" y="123.998" width="60" height="10" rx="5" fill="#F2F4F7"/>
<rect x="262.93" y="147.503" width="60" height="10" rx="5" fill="#F2F4F7"/>
<rect x="239.93" y="98.4983" width="14" height="14" rx="2" fill="#3384FB"/>
<rect x="239.93" y="122.998" width="14" height="14" rx="2" fill="#091832"/>
<rect x="239.93" y="146.503" width="14" height="14" rx="2" fill="#EDF2F7"/>
<g filter="url(#filter1_d_1299_3342)">
<rect x="24.3984" y="65.9475" width="358.75" height="1" rx="0.5" fill="#EDEFF5"/>
</g>
<g filter="url(#filter2_d_1299_3342)">
<rect x="183.398" y="218.493" width="393.5" height="89.6724" rx="8" fill="white"/>
</g>
<path d="M220.886 277.485V275.791C219.463 275.63 218.305 275.131 217.41 274.295C216.515 273.459 216.053 272.337 216.024 270.929H218.994C219.023 271.516 219.199 272.029 219.522 272.469C219.859 272.909 220.314 273.21 220.886 273.371V268.729C220.754 268.685 220.615 268.641 220.468 268.597C220.336 268.553 220.197 268.509 220.05 268.465C218.862 268.055 217.953 267.527 217.322 266.881C216.706 266.236 216.398 265.378 216.398 264.307C216.383 263.046 216.794 262.034 217.63 261.271C218.466 260.494 219.551 260.047 220.886 259.929V258.147H222.36V259.951C223.68 260.083 224.743 260.545 225.55 261.337C226.371 262.115 226.804 263.119 226.848 264.351H223.834C223.819 263.926 223.68 263.537 223.416 263.185C223.167 262.819 222.815 262.562 222.36 262.415V266.507C222.477 266.551 222.595 266.595 222.712 266.639C222.829 266.669 222.947 266.705 223.064 266.749C223.827 267.013 224.523 267.321 225.154 267.673C225.785 268.025 226.291 268.495 226.672 269.081C227.053 269.653 227.244 270.394 227.244 271.303C227.244 272.066 227.053 272.777 226.672 273.437C226.305 274.097 225.755 274.647 225.022 275.087C224.303 275.513 223.416 275.755 222.36 275.813V277.485H220.886ZM219.346 264.109C219.346 264.579 219.485 264.96 219.764 265.253C220.043 265.532 220.417 265.774 220.886 265.979V262.327C220.431 262.415 220.057 262.613 219.764 262.921C219.485 263.229 219.346 263.625 219.346 264.109ZM224.252 271.501C224.252 270.915 224.076 270.453 223.724 270.115C223.372 269.778 222.917 269.492 222.36 269.257V273.437C222.947 273.349 223.409 273.137 223.746 272.799C224.083 272.462 224.252 272.029 224.252 271.501ZM234.739 275.835C233.727 275.835 232.81 275.659 231.989 275.307C231.168 274.941 230.508 274.383 230.009 273.635C229.51 272.887 229.246 271.949 229.217 270.819H231.989C232.004 271.567 232.246 272.198 232.715 272.711C233.199 273.21 233.874 273.459 234.739 273.459C235.56 273.459 236.191 273.232 236.631 272.777C237.071 272.323 237.291 271.751 237.291 271.061C237.291 270.255 236.998 269.646 236.411 269.235C235.839 268.81 235.098 268.597 234.189 268.597H233.045V266.287H234.211C234.959 266.287 235.582 266.111 236.081 265.759C236.58 265.407 236.829 264.887 236.829 264.197C236.829 263.625 236.638 263.171 236.257 262.833C235.89 262.481 235.377 262.305 234.717 262.305C233.998 262.305 233.434 262.518 233.023 262.943C232.627 263.369 232.407 263.889 232.363 264.505H229.613C229.672 263.083 230.163 261.961 231.087 261.139C232.026 260.318 233.236 259.907 234.717 259.907C235.773 259.907 236.66 260.098 237.379 260.479C238.112 260.846 238.662 261.337 239.029 261.953C239.41 262.569 239.601 263.251 239.601 263.999C239.601 264.865 239.359 265.598 238.875 266.199C238.406 266.786 237.819 267.182 237.115 267.387C237.98 267.563 238.684 267.989 239.227 268.663C239.77 269.323 240.041 270.159 240.041 271.171C240.041 272.022 239.836 272.799 239.425 273.503C239.014 274.207 238.413 274.772 237.621 275.197C236.844 275.623 235.883 275.835 234.739 275.835ZM249.847 275.571V272.711H242.257V270.467L249.473 260.171H252.663V270.269H254.687V272.711H252.663V275.571H249.847ZM245.271 270.269H250.023V263.273L245.271 270.269ZM262.422 275.835C261.293 275.835 260.318 275.637 259.496 275.241C258.69 274.845 258.052 274.303 257.582 273.613C257.128 272.909 256.864 272.117 256.79 271.237H259.54C259.672 271.868 259.995 272.396 260.508 272.821C261.022 273.232 261.66 273.437 262.422 273.437C263.244 273.437 263.911 273.137 264.424 272.535C264.952 271.934 265.216 271.186 265.216 270.291C265.216 269.367 264.952 268.634 264.424 268.091C263.911 267.549 263.258 267.277 262.466 267.277C261.806 267.277 261.234 267.439 260.75 267.761C260.266 268.084 259.922 268.487 259.716 268.971H257.01L258.33 260.171H266.866V262.635H260.442L259.738 266.199C260.061 265.847 260.501 265.561 261.058 265.341C261.616 265.107 262.239 264.989 262.928 264.989C264.028 264.989 264.945 265.239 265.678 265.737C266.412 266.221 266.969 266.867 267.35 267.673C267.732 268.465 267.922 269.331 267.922 270.269C267.922 271.34 267.688 272.293 267.218 273.129C266.764 273.965 266.118 274.625 265.282 275.109C264.461 275.593 263.508 275.835 262.422 275.835ZM269.355 278.123L270.609 272.645H273.337L271.203 278.123H269.355ZM281.157 275.835C280.027 275.835 279.052 275.637 278.231 275.241C277.424 274.845 276.786 274.303 276.317 273.613C275.862 272.909 275.598 272.117 275.525 271.237H278.275C278.407 271.868 278.729 272.396 279.243 272.821C279.756 273.232 280.394 273.437 281.157 273.437C281.978 273.437 282.645 273.137 283.159 272.535C283.687 271.934 283.951 271.186 283.951 270.291C283.951 269.367 283.687 268.634 283.159 268.091C282.645 267.549 281.993 267.277 281.201 267.277C280.541 267.277 279.969 267.439 279.485 267.761C279.001 268.084 278.656 268.487 278.451 268.971H275.745L277.065 260.171H285.601V262.635H279.177L278.473 266.199C278.795 265.847 279.235 265.561 279.793 265.341C280.35 265.107 280.973 264.989 281.663 264.989C282.763 264.989 283.679 265.239 284.413 265.737C285.146 266.221 285.703 266.867 286.085 267.673C286.466 268.465 286.657 269.331 286.657 270.269C286.657 271.34 286.422 272.293 285.953 273.129C285.498 273.965 284.853 274.625 284.017 275.109C283.195 275.593 282.242 275.835 281.157 275.835ZM295.591 275.835C294.169 275.835 292.951 275.505 291.939 274.845C290.927 274.171 290.143 273.239 289.585 272.051C289.043 270.849 288.771 269.455 288.771 267.871C288.771 266.302 289.043 264.916 289.585 263.713C290.143 262.511 290.927 261.579 291.939 260.919C292.951 260.245 294.169 259.907 295.591 259.907C297.014 259.907 298.231 260.245 299.243 260.919C300.255 261.579 301.033 262.511 301.575 263.713C302.133 264.916 302.411 266.302 302.411 267.871C302.411 269.455 302.133 270.849 301.575 272.051C301.033 273.239 300.255 274.171 299.243 274.845C298.231 275.505 297.014 275.835 295.591 275.835ZM295.591 273.305C296.75 273.305 297.696 272.821 298.429 271.853C299.163 270.885 299.529 269.558 299.529 267.871C299.529 266.185 299.163 264.857 298.429 263.889C297.696 262.921 296.75 262.437 295.591 262.437C294.418 262.437 293.465 262.921 292.731 263.889C292.013 264.857 291.653 266.185 291.653 267.871C291.653 269.558 292.013 270.885 292.731 271.853C293.465 272.821 294.418 273.305 295.591 273.305ZM311.21 275.835C309.788 275.835 308.57 275.505 307.558 274.845C306.546 274.171 305.762 273.239 305.204 272.051C304.662 270.849 304.39 269.455 304.39 267.871C304.39 266.302 304.662 264.916 305.204 263.713C305.762 262.511 306.546 261.579 307.558 260.919C308.57 260.245 309.788 259.907 311.21 259.907C312.633 259.907 313.85 260.245 314.862 260.919C315.874 261.579 316.652 262.511 317.194 263.713C317.752 264.916 318.03 266.302 318.03 267.871C318.03 269.455 317.752 270.849 317.194 272.051C316.652 273.239 315.874 274.171 314.862 274.845C313.85 275.505 312.633 275.835 311.21 275.835ZM311.21 273.305C312.369 273.305 313.315 272.821 314.048 271.853C314.782 270.885 315.148 269.558 315.148 267.871C315.148 266.185 314.782 264.857 314.048 263.889C313.315 262.921 312.369 262.437 311.21 262.437C310.037 262.437 309.084 262.921 308.35 263.889C307.632 264.857 307.272 266.185 307.272 267.871C307.272 269.558 307.632 270.885 308.35 271.853C309.084 272.821 310.037 273.305 311.21 273.305Z" fill="#091832"/>
<path d="M351.27 275.571V273.525C352.209 272.748 353.118 271.978 353.998 271.215C354.893 270.453 355.685 269.697 356.374 268.949C357.078 268.201 357.636 267.475 358.046 266.771C358.472 266.053 358.684 265.356 358.684 264.681C358.684 264.051 358.508 263.493 358.156 263.009C357.819 262.525 357.254 262.283 356.462 262.283C355.656 262.283 355.047 262.547 354.636 263.075C354.226 263.603 354.02 264.241 354.02 264.989H351.292C351.322 263.86 351.571 262.921 352.04 262.173C352.51 261.411 353.133 260.846 353.91 260.479C354.688 260.098 355.56 259.907 356.528 259.907C358.098 259.907 359.315 260.34 360.18 261.205C361.06 262.056 361.5 263.163 361.5 264.527C361.5 265.378 361.302 266.207 360.906 267.013C360.525 267.82 360.019 268.597 359.388 269.345C358.758 270.093 358.076 270.797 357.342 271.457C356.609 272.103 355.898 272.704 355.208 273.261H361.874V275.571H351.27ZM369.453 275.835C368.397 275.835 367.444 275.652 366.593 275.285C365.743 274.904 365.061 274.369 364.547 273.679C364.049 272.99 363.799 272.191 363.799 271.281C363.799 270.343 364.041 269.521 364.525 268.817C365.024 268.113 365.677 267.607 366.483 267.299C365.779 266.991 365.222 266.551 364.811 265.979C364.401 265.393 364.195 264.74 364.195 264.021C364.195 263.288 364.393 262.613 364.789 261.997C365.185 261.367 365.772 260.861 366.549 260.479C367.341 260.098 368.309 259.907 369.453 259.907C370.597 259.907 371.558 260.098 372.335 260.479C373.113 260.861 373.699 261.367 374.095 261.997C374.491 262.613 374.689 263.288 374.689 264.021C374.689 264.725 374.477 265.378 374.051 265.979C373.641 266.566 373.091 267.006 372.401 267.299C373.223 267.607 373.875 268.113 374.359 268.817C374.843 269.521 375.085 270.343 375.085 271.281C375.085 272.191 374.836 272.99 374.337 273.679C373.839 274.369 373.157 274.904 372.291 275.285C371.441 275.652 370.495 275.835 369.453 275.835ZM369.453 266.463C370.216 266.463 370.817 266.265 371.257 265.869C371.697 265.473 371.917 264.967 371.917 264.351C371.917 263.677 371.697 263.149 371.257 262.767C370.832 262.386 370.231 262.195 369.453 262.195C368.661 262.195 368.053 262.386 367.627 262.767C367.202 263.149 366.989 263.677 366.989 264.351C366.989 264.982 367.202 265.495 367.627 265.891C368.067 266.273 368.676 266.463 369.453 266.463ZM369.453 273.481C370.392 273.481 371.103 273.254 371.587 272.799C372.071 272.33 372.313 271.743 372.313 271.039C372.313 270.262 372.057 269.653 371.543 269.213C371.045 268.773 370.348 268.553 369.453 268.553C368.559 268.553 367.847 268.773 367.319 269.213C366.806 269.653 366.549 270.262 366.549 271.039C366.549 271.743 366.791 272.33 367.275 272.799C367.774 273.254 368.5 273.481 369.453 273.481ZM382.576 275.835C381.506 275.835 380.604 275.63 379.87 275.219C379.137 274.794 378.565 274.244 378.154 273.569C377.744 272.895 377.502 272.169 377.428 271.391H380.046C380.164 272.066 380.442 272.587 380.882 272.953C381.337 273.32 381.909 273.503 382.598 273.503C383.581 273.503 384.373 273.056 384.974 272.161C385.576 271.252 385.898 269.873 385.942 268.025C385.59 268.627 385.055 269.125 384.336 269.521C383.632 269.917 382.855 270.115 382.004 270.115C381.154 270.115 380.354 269.91 379.606 269.499C378.858 269.089 378.25 268.509 377.78 267.761C377.311 267.013 377.076 266.133 377.076 265.121C377.076 264.197 377.304 263.339 377.758 262.547C378.213 261.755 378.844 261.117 379.65 260.633C380.457 260.149 381.403 259.907 382.488 259.907C383.647 259.907 384.622 260.12 385.414 260.545C386.206 260.971 386.837 261.543 387.306 262.261C387.79 262.98 388.135 263.779 388.34 264.659C388.56 265.539 388.67 266.441 388.67 267.365C388.67 269.081 388.428 270.577 387.944 271.853C387.475 273.115 386.778 274.097 385.854 274.801C384.945 275.491 383.852 275.835 382.576 275.835ZM382.664 267.739C383.207 267.739 383.698 267.622 384.138 267.387C384.578 267.138 384.923 266.815 385.172 266.419C385.422 266.009 385.546 265.554 385.546 265.055C385.546 264.263 385.268 263.611 384.71 263.097C384.168 262.584 383.478 262.327 382.642 262.327C381.821 262.327 381.139 262.584 380.596 263.097C380.054 263.596 379.782 264.234 379.782 265.011C379.782 265.833 380.054 266.493 380.596 266.991C381.139 267.49 381.828 267.739 382.664 267.739Z" fill="#091832"/>
<path d="M439.099 275.571V273.525C440.037 272.748 440.947 271.978 441.827 271.215C442.721 270.453 443.513 269.697 444.203 268.949C444.907 268.201 445.464 267.475 445.875 266.771C446.3 266.053 446.513 265.356 446.513 264.681C446.513 264.051 446.337 263.493 445.985 263.009C445.647 262.525 445.083 262.283 444.291 262.283C443.484 262.283 442.875 262.547 442.465 263.075C442.054 263.603 441.849 264.241 441.849 264.989H439.121C439.15 263.86 439.399 262.921 439.869 262.173C440.338 261.411 440.961 260.846 441.739 260.479C442.516 260.098 443.389 259.907 444.357 259.907C445.926 259.907 447.143 260.34 448.009 261.205C448.889 262.056 449.329 263.163 449.329 264.527C449.329 265.378 449.131 266.207 448.735 267.013C448.353 267.82 447.847 268.597 447.217 269.345C446.586 270.093 445.904 270.797 445.171 271.457C444.437 272.103 443.726 272.704 443.037 273.261H449.703V275.571H439.099ZM453.185 275.725C452.672 275.725 452.246 275.564 451.909 275.241C451.586 274.919 451.425 274.53 451.425 274.075C451.425 273.606 451.586 273.21 451.909 272.887C452.246 272.565 452.672 272.403 453.185 272.403C453.698 272.403 454.116 272.565 454.439 272.887C454.776 273.21 454.945 273.606 454.945 274.075C454.945 274.53 454.776 274.919 454.439 275.241C454.116 275.564 453.698 275.725 453.185 275.725ZM462.76 275.835C461.704 275.835 460.751 275.652 459.9 275.285C459.049 274.904 458.367 274.369 457.854 273.679C457.355 272.99 457.106 272.191 457.106 271.281C457.106 270.343 457.348 269.521 457.832 268.817C458.331 268.113 458.983 267.607 459.79 267.299C459.086 266.991 458.529 266.551 458.118 265.979C457.707 265.393 457.502 264.74 457.502 264.021C457.502 263.288 457.7 262.613 458.096 261.997C458.492 261.367 459.079 260.861 459.856 260.479C460.648 260.098 461.616 259.907 462.76 259.907C463.904 259.907 464.865 260.098 465.642 260.479C466.419 260.861 467.006 261.367 467.402 261.997C467.798 262.613 467.996 263.288 467.996 264.021C467.996 264.725 467.783 265.378 467.358 265.979C466.947 266.566 466.397 267.006 465.708 267.299C466.529 267.607 467.182 268.113 467.666 268.817C468.15 269.521 468.392 270.343 468.392 271.281C468.392 272.191 468.143 272.99 467.644 273.679C467.145 274.369 466.463 274.904 465.598 275.285C464.747 275.652 463.801 275.835 462.76 275.835ZM462.76 266.463C463.523 266.463 464.124 266.265 464.564 265.869C465.004 265.473 465.224 264.967 465.224 264.351C465.224 263.677 465.004 263.149 464.564 262.767C464.139 262.386 463.537 262.195 462.76 262.195C461.968 262.195 461.359 262.386 460.934 262.767C460.509 263.149 460.296 263.677 460.296 264.351C460.296 264.982 460.509 265.495 460.934 265.891C461.374 266.273 461.983 266.463 462.76 266.463ZM462.76 273.481C463.699 273.481 464.41 273.254 464.894 272.799C465.378 272.33 465.62 271.743 465.62 271.039C465.62 270.262 465.363 269.653 464.85 269.213C464.351 268.773 463.655 268.553 462.76 268.553C461.865 268.553 461.154 268.773 460.626 269.213C460.113 269.653 459.856 270.262 459.856 271.039C459.856 271.743 460.098 272.33 460.582 272.799C461.081 273.254 461.807 273.481 462.76 273.481ZM474.33 267.739C473.626 267.739 472.988 267.585 472.416 267.277C471.844 266.955 471.389 266.5 471.052 265.913C470.715 265.327 470.546 264.63 470.546 263.823C470.546 263.017 470.715 262.32 471.052 261.733C471.389 261.147 471.844 260.699 472.416 260.391C472.988 260.069 473.633 259.907 474.352 259.907C475.056 259.907 475.687 260.069 476.244 260.391C476.816 260.699 477.271 261.147 477.608 261.733C477.945 262.32 478.114 263.017 478.114 263.823C478.114 264.63 477.945 265.327 477.608 265.913C477.271 266.5 476.816 266.955 476.244 267.277C475.672 267.585 475.034 267.739 474.33 267.739ZM473.494 275.571L482.184 260.171H484.934L476.244 275.571H473.494ZM474.33 265.781C474.755 265.781 475.122 265.62 475.43 265.297C475.738 264.96 475.892 264.469 475.892 263.823C475.892 263.178 475.738 262.687 475.43 262.349C475.137 262.012 474.77 261.843 474.33 261.843C473.89 261.843 473.516 262.012 473.208 262.349C472.915 262.687 472.768 263.178 472.768 263.823C472.768 264.469 472.915 264.96 473.208 265.297C473.516 265.62 473.89 265.781 474.33 265.781ZM484.186 275.835C483.482 275.835 482.844 275.681 482.272 275.373C481.7 275.051 481.245 274.596 480.908 274.009C480.571 273.423 480.402 272.726 480.402 271.919C480.402 271.113 480.571 270.423 480.908 269.851C481.245 269.265 481.7 268.817 482.272 268.509C482.844 268.187 483.489 268.025 484.208 268.025C484.912 268.025 485.543 268.187 486.1 268.509C486.672 268.817 487.127 269.265 487.464 269.851C487.801 270.423 487.97 271.113 487.97 271.919C487.97 272.726 487.801 273.423 487.464 274.009C487.127 274.596 486.672 275.051 486.1 275.373C485.543 275.681 484.905 275.835 484.186 275.835ZM484.186 273.877C484.626 273.877 484.993 273.716 485.286 273.393C485.594 273.056 485.748 272.565 485.748 271.919C485.748 271.274 485.594 270.783 485.286 270.445C484.993 270.108 484.626 269.939 484.186 269.939C483.746 269.939 483.372 270.108 483.064 270.445C482.771 270.783 482.624 271.274 482.624 271.919C482.624 272.565 482.771 273.056 483.064 273.393C483.372 273.716 483.746 273.877 484.186 273.877Z" fill="#091832"/>
<rect x="215.078" y="289.83" width="103.938" height="1" rx="0.5" fill="#3384FB"/>
<rect x="215.078" y="235.83" width="38.25" height="10.4834" rx="5.2417" fill="#F2F4F7"/>
<rect x="350.148" y="235.83" width="39.2188" height="10.4834" rx="5.2417" fill="#F2F4F7"/>
<rect x="437.977" y="235.83" width="107.242" height="10.4834" rx="5.2417" fill="#F2F4F7"/>
<rect x="350.148" y="289.83" width="39.2188" height="1" rx="0.5" fill="#3384FB"/>
<rect x="437.977" y="289.83" width="107.242" height="1" rx="0.5" fill="#3384FB"/>
<defs>
<filter id="filter0_d_1299_3342" x="0.09375" y="0.411377" width="406.055" height="302.035" filterUnits="userSpaceOnUse" color-interpolation-filters="sRGB">
<feFlood flood-opacity="0" result="BackgroundImageFix"/>
<feColorMatrix in="SourceAlpha" type="matrix" values="0 0 0 0 0 0 0 0 0 0 0 0 0 0 0 0 0 0 127 0" result="hardAlpha"/>
<feOffset dy="3"/>
<feGaussianBlur stdDeviation="11.5"/>
<feColorMatrix type="matrix" values="0 0 0 0 0 0 0 0 0 0 0 0 0 0 0 0 0 0 0.161 0"/>
<feBlend mode="normal" in2="BackgroundImageFix" result="effect1_dropShadow_1299_3342"/>
<feBlend mode="normal" in="SourceGraphic" in2="effect1_dropShadow_1299_3342" result="shape"/>
</filter>
<filter id="filter1_d_1299_3342" x="1.39844" y="45.9475" width="404.75" height="47" filterUnits="userSpaceOnUse" color-interpolation-filters="sRGB">
<feFlood flood-opacity="0" result="BackgroundImageFix"/>
<feColorMatrix in="SourceAlpha" type="matrix" values="0 0 0 0 0 0 0 0 0 0 0 0 0 0 0 0 0 0 127 0" result="hardAlpha"/>
<feOffset dy="3"/>
<feGaussianBlur stdDeviation="11.5"/>
<feColorMatrix type="matrix" values="0 0 0 0 0 0 0 0 0 0 0 0 0 0 0 0 0 0 0.161 0"/>
<feBlend mode="normal" in2="BackgroundImageFix" result="effect1_dropShadow_1299_3342"/>
<feBlend mode="normal" in="SourceGraphic" in2="effect1_dropShadow_1299_3342" result="shape"/>
</filter>
<filter id="filter2_d_1299_3342" x="160.398" y="198.493" width="439.5" height="135.672" filterUnits="userSpaceOnUse" color-interpolation-filters="sRGB">
<feFlood flood-opacity="0" result="BackgroundImageFix"/>
<feColorMatrix in="SourceAlpha" type="matrix" values="0 0 0 0 0 0 0 0 0 0 0 0 0 0 0 0 0 0 127 0" result="hardAlpha"/>
<feOffset dy="3"/>
<feGaussianBlur stdDeviation="11.5"/>
<feColorMatrix type="matrix" values="0 0 0 0 0 0 0 0 0 0 0 0 0 0 0 0 0 0 0.161 0"/>
<feBlend mode="normal" in2="BackgroundImageFix" result="effect1_dropShadow_1299_3342"/>
<feBlend mode="normal" in="SourceGraphic" in2="effect1_dropShadow_1299_3342" result="shape"/>
</filter>
</defs>
</svg>
