<svg width="517" height="371" viewBox="0 0 517 371" fill="none" xmlns="http://www.w3.org/2000/svg">
<rect x="0.828125" y="0.653809" width="512.344" height="370.104" rx="16" fill="white"/>
<circle cx="26.0312" cy="22.6587" r="6.5" fill="#EAEDEF"/>
<circle cx="42.0625" cy="22.6587" r="6.5" fill="#EAEDEF"/>
<circle cx="58.0938" cy="22.6587" r="6.5" fill="#EAEDEF"/>
<path opacity="0.4" d="M0.828125 40.2988H143.102V370.758H16.8281C7.99157 370.758 0.828125 363.595 0.828125 354.758V40.2988Z" fill="#E5E7EB"/>
<rect x="16.332" y="102.683" width="114.391" height="25.0896" rx="4" fill="#3384FB"/>
<rect x="16.332" y="134.804" width="114.391" height="25.0896" rx="4" fill="white"/>
<rect x="16.332" y="231.168" width="114.391" height="25.0896" rx="4" fill="white"/>
<rect x="16.332" y="166.926" width="114.391" height="25.0896" rx="4" fill="white"/>
<rect x="16.332" y="199.047" width="114.391" height="25.0896" rx="4" fill="white"/>
<rect x="16.332" y="56.2476" width="29" height="29" rx="4" fill="white"/>
<rect x="162.906" y="45.5789" width="68.0078" height="14.5" rx="7.25" fill="#E5E7EB"/>
<rect x="162.906" y="203.094" width="46.8789" height="14.5" rx="7.25" fill="#E5E7EB"/>
<g filter="url(#filter0_d_1299_3677)">
<rect x="162.906" y="75.5427" width="100.195" height="101.018" rx="4" fill="#3384FB" fill-opacity="0.11" shape-rendering="crispEdges"/>
<rect x="163.406" y="76.0427" width="99.1953" height="100.018" rx="3.5" stroke="#3384FB" shape-rendering="crispEdges"/>
</g>
<rect x="275.809" y="75.5427" width="100.195" height="101.018" rx="4" fill="#F8F8FA"/>
<rect x="388.711" y="75.5427" width="100.195" height="101.018" rx="4" fill="#F8F8FA"/>
<path d="M162.906 237.058C162.906 234.849 164.697 233.058 166.906 233.058H259.102C261.311 233.058 263.102 234.849 263.102 237.058V325.833H162.906V237.058Z" fill="#F8F8FA"/>
<path d="M275.809 237.058C275.809 234.849 277.599 233.058 279.809 233.058H372.004C374.213 233.058 376.004 234.849 376.004 237.058V325.833H275.809V237.058Z" fill="#F8F8FA"/>
<path d="M388.711 237.058C388.711 234.849 390.502 233.058 392.711 233.058H484.906C487.115 233.058 488.906 234.849 488.906 237.058V325.833H388.711V237.058Z" fill="#F8F8FA"/>
<g filter="url(#filter1_d_1299_3677)">
<g filter="url(#filter2_d_1299_3677)">
<path d="M448.548 89.1687C453.434 94.0548 460.059 96.8032 466.969 96.8108C472.102 96.8097 477.12 95.2934 481.394 92.4519C485.668 89.6105 489.008 85.5703 490.995 80.8382C492.982 76.1061 493.527 70.8926 492.563 65.8516C491.599 60.8106 489.168 56.1664 485.575 52.5015C481.982 48.8366 477.387 46.3142 472.366 45.2504C467.345 44.1867 462.122 44.629 457.351 46.522C452.581 48.4149 448.475 51.6743 445.55 55.8912C442.624 60.1081 441.009 65.095 440.906 70.2263V70.7476C440.914 77.6576 443.662 84.2825 448.548 89.1687Z" fill="#3384FB"/>
</g>
<path d="M457.771 70.101L454.946 72.9266L462.962 80.9423L478.993 64.9108L476.168 62.0652L462.962 75.2712L457.771 70.101Z" fill="white"/>
</g>
<defs>
<filter id="filter0_d_1299_3677" x="122.906" y="35.5427" width="180.195" height="181.018" filterUnits="userSpaceOnUse" color-interpolation-filters="sRGB">
<feFlood flood-opacity="0" result="BackgroundImageFix"/>
<feColorMatrix in="SourceAlpha" type="matrix" values="0 0 0 0 0 0 0 0 0 0 0 0 0 0 0 0 0 0 127 0" result="hardAlpha"/>
<feOffset/>
<feGaussianBlur stdDeviation="20"/>
<feComposite in2="hardAlpha" operator="out"/>
<feColorMatrix type="matrix" values="0 0 0 0 0.941176 0 0 0 0 0.968627 0 0 0 0 0.988235 0 0 0 1 0"/>
<feBlend mode="normal" in2="BackgroundImageFix" result="effect1_dropShadow_1299_3677"/>
<feBlend mode="normal" in="SourceGraphic" in2="effect1_dropShadow_1299_3677" result="shape"/>
</filter>
<filter id="filter1_d_1299_3677" x="417.906" y="24.6844" width="98.1211" height="98.1263" filterUnits="userSpaceOnUse" color-interpolation-filters="sRGB">
<feFlood flood-opacity="0" result="BackgroundImageFix"/>
<feColorMatrix in="SourceAlpha" type="matrix" values="0 0 0 0 0 0 0 0 0 0 0 0 0 0 0 0 0 0 127 0" result="hardAlpha"/>
<feOffset dy="3"/>
<feGaussianBlur stdDeviation="11.5"/>
<feColorMatrix type="matrix" values="0 0 0 0 0 0 0 0 0 0 0 0 0 0 0 0 0 0 0.161 0"/>
<feBlend mode="normal" in2="BackgroundImageFix" result="effect1_dropShadow_1299_3677"/>
<feBlend mode="normal" in="SourceGraphic" in2="effect1_dropShadow_1299_3677" result="shape"/>
</filter>
<filter id="filter2_d_1299_3677" x="417.906" y="24.6844" width="98.1211" height="98.1263" filterUnits="userSpaceOnUse" color-interpolation-filters="sRGB">
<feFlood flood-opacity="0" result="BackgroundImageFix"/>
<feColorMatrix in="SourceAlpha" type="matrix" values="0 0 0 0 0 0 0 0 0 0 0 0 0 0 0 0 0 0 127 0" result="hardAlpha"/>
<feOffset dy="3"/>
<feGaussianBlur stdDeviation="11.5"/>
<feColorMatrix type="matrix" values="0 0 0 0 0 0 0 0 0 0 0 0 0 0 0 0 0 0 0.161 0"/>
<feBlend mode="normal" in2="BackgroundImageFix" result="effect1_dropShadow_1299_3677"/>
<feBlend mode="normal" in="SourceGraphic" in2="effect1_dropShadow_1299_3677" result="shape"/>
</filter>
</defs>
</svg>
