<svg width="549" height="456" viewBox="0 0 549 456" fill="none" xmlns="http://www.w3.org/2000/svg">
<g filter="url(#filter0_d_1299_3567)">
<rect x="23.8281" y="109.244" width="444.914" height="319.874" rx="16" fill="white"/>
</g>
<path d="M425.606 196.728V193.404L424.916 193.566V192.978L425.93 192.528H426.404V196.728H425.606ZM428.941 196.8C428.553 196.8 428.221 196.71 427.945 196.53C427.669 196.346 427.455 196.092 427.303 195.768C427.155 195.44 427.081 195.06 427.081 194.628C427.081 194.2 427.155 193.822 427.303 193.494C427.455 193.166 427.669 192.912 427.945 192.732C428.221 192.548 428.553 192.456 428.941 192.456C429.329 192.456 429.661 192.548 429.937 192.732C430.213 192.912 430.425 193.166 430.573 193.494C430.725 193.822 430.801 194.2 430.801 194.628C430.801 195.06 430.725 195.44 430.573 195.768C430.425 196.092 430.213 196.346 429.937 196.53C429.661 196.71 429.329 196.8 428.941 196.8ZM428.941 196.11C429.257 196.11 429.515 195.978 429.715 195.714C429.915 195.45 430.015 195.088 430.015 194.628C430.015 194.168 429.915 193.806 429.715 193.542C429.515 193.278 429.257 193.146 428.941 193.146C428.621 193.146 428.361 193.278 428.161 193.542C427.965 193.806 427.867 194.168 427.867 194.628C427.867 195.088 427.965 195.45 428.161 195.714C428.361 195.978 428.621 196.11 428.941 196.11ZM433.2 196.8C432.812 196.8 432.48 196.71 432.204 196.53C431.928 196.346 431.714 196.092 431.562 195.768C431.414 195.44 431.34 195.06 431.34 194.628C431.34 194.2 431.414 193.822 431.562 193.494C431.714 193.166 431.928 192.912 432.204 192.732C432.48 192.548 432.812 192.456 433.2 192.456C433.588 192.456 433.92 192.548 434.196 192.732C434.472 192.912 434.684 193.166 434.832 193.494C434.984 193.822 435.06 194.2 435.06 194.628C435.06 195.06 434.984 195.44 434.832 195.768C434.684 196.092 434.472 196.346 434.196 196.53C433.92 196.71 433.588 196.8 433.2 196.8ZM433.2 196.11C433.516 196.11 433.774 195.978 433.974 195.714C434.174 195.45 434.274 195.088 434.274 194.628C434.274 194.168 434.174 193.806 433.974 193.542C433.774 193.278 433.516 193.146 433.2 193.146C432.88 193.146 432.62 193.278 432.42 193.542C432.224 193.806 432.126 194.168 432.126 194.628C432.126 195.088 432.224 195.45 432.42 195.714C432.62 195.978 432.88 196.11 433.2 196.11ZM436.602 194.592C436.41 194.592 436.236 194.55 436.08 194.466C435.924 194.378 435.8 194.254 435.708 194.094C435.616 193.934 435.57 193.744 435.57 193.524C435.57 193.304 435.616 193.114 435.708 192.954C435.8 192.794 435.924 192.672 436.08 192.588C436.236 192.5 436.412 192.456 436.608 192.456C436.8 192.456 436.972 192.5 437.124 192.588C437.28 192.672 437.404 192.794 437.496 192.954C437.588 193.114 437.634 193.304 437.634 193.524C437.634 193.744 437.588 193.934 437.496 194.094C437.404 194.254 437.28 194.378 437.124 194.466C436.968 194.55 436.794 194.592 436.602 194.592ZM436.374 196.728L438.744 192.528H439.494L437.124 196.728H436.374ZM436.602 194.058C436.718 194.058 436.818 194.014 436.902 193.926C436.986 193.834 437.028 193.7 437.028 193.524C437.028 193.348 436.986 193.214 436.902 193.122C436.822 193.03 436.722 192.984 436.602 192.984C436.482 192.984 436.38 193.03 436.296 193.122C436.216 193.214 436.176 193.348 436.176 193.524C436.176 193.7 436.216 193.834 436.296 193.926C436.38 194.014 436.482 194.058 436.602 194.058ZM439.29 196.8C439.098 196.8 438.924 196.758 438.768 196.674C438.612 196.586 438.488 196.462 438.396 196.302C438.304 196.142 438.258 195.952 438.258 195.732C438.258 195.512 438.304 195.324 438.396 195.168C438.488 195.008 438.612 194.886 438.768 194.802C438.924 194.714 439.1 194.67 439.296 194.67C439.488 194.67 439.66 194.714 439.812 194.802C439.968 194.886 440.092 195.008 440.184 195.168C440.276 195.324 440.322 195.512 440.322 195.732C440.322 195.952 440.276 196.142 440.184 196.302C440.092 196.462 439.968 196.586 439.812 196.674C439.66 196.758 439.486 196.8 439.29 196.8ZM439.29 196.266C439.41 196.266 439.51 196.222 439.59 196.134C439.674 196.042 439.716 195.908 439.716 195.732C439.716 195.556 439.674 195.422 439.59 195.33C439.51 195.238 439.41 195.192 439.29 195.192C439.17 195.192 439.068 195.238 438.984 195.33C438.904 195.422 438.864 195.556 438.864 195.732C438.864 195.908 438.904 196.042 438.984 196.134C439.068 196.222 439.17 196.266 439.29 196.266Z" fill="#001931"/>
<path d="M426.584 214.8C426.292 214.8 426.046 214.744 425.846 214.632C425.646 214.516 425.49 214.366 425.378 214.182C425.266 213.998 425.2 213.8 425.18 213.588H425.894C425.926 213.772 426.002 213.914 426.122 214.014C426.246 214.114 426.402 214.164 426.59 214.164C426.858 214.164 427.074 214.042 427.238 213.798C427.402 213.55 427.49 213.174 427.502 212.67C427.406 212.834 427.26 212.97 427.064 213.078C426.872 213.186 426.66 213.24 426.428 213.24C426.196 213.24 425.978 213.184 425.774 213.072C425.57 212.96 425.404 212.802 425.276 212.598C425.148 212.394 425.084 212.154 425.084 211.878C425.084 211.626 425.146 211.392 425.27 211.176C425.394 210.96 425.566 210.786 425.786 210.654C426.006 210.522 426.264 210.456 426.56 210.456C426.876 210.456 427.142 210.514 427.358 210.63C427.574 210.746 427.746 210.902 427.874 211.098C428.006 211.294 428.1 211.512 428.156 211.752C428.216 211.992 428.246 212.238 428.246 212.49C428.246 212.958 428.18 213.366 428.048 213.714C427.92 214.058 427.73 214.326 427.478 214.518C427.23 214.706 426.932 214.8 426.584 214.8ZM426.608 212.592C426.756 212.592 426.89 212.56 427.01 212.496C427.13 212.428 427.224 212.34 427.292 212.232C427.36 212.12 427.394 211.996 427.394 211.86C427.394 211.644 427.318 211.466 427.166 211.326C427.018 211.186 426.83 211.116 426.602 211.116C426.378 211.116 426.192 211.186 426.044 211.326C425.896 211.462 425.822 211.636 425.822 211.848C425.822 212.072 425.896 212.252 426.044 212.388C426.192 212.524 426.38 212.592 426.608 212.592ZM430.675 214.8C430.287 214.8 429.955 214.71 429.679 214.53C429.403 214.346 429.189 214.092 429.037 213.768C428.889 213.44 428.815 213.06 428.815 212.628C428.815 212.2 428.889 211.822 429.037 211.494C429.189 211.166 429.403 210.912 429.679 210.732C429.955 210.548 430.287 210.456 430.675 210.456C431.063 210.456 431.395 210.548 431.671 210.732C431.947 210.912 432.159 211.166 432.307 211.494C432.459 211.822 432.535 212.2 432.535 212.628C432.535 213.06 432.459 213.44 432.307 213.768C432.159 214.092 431.947 214.346 431.671 214.53C431.395 214.71 431.063 214.8 430.675 214.8ZM430.675 214.11C430.991 214.11 431.249 213.978 431.449 213.714C431.649 213.45 431.749 213.088 431.749 212.628C431.749 212.168 431.649 211.806 431.449 211.542C431.249 211.278 430.991 211.146 430.675 211.146C430.355 211.146 430.095 211.278 429.895 211.542C429.699 211.806 429.601 212.168 429.601 212.628C429.601 213.088 429.699 213.45 429.895 213.714C430.095 213.978 430.355 214.11 430.675 214.11ZM434.077 212.592C433.885 212.592 433.711 212.55 433.555 212.466C433.399 212.378 433.275 212.254 433.183 212.094C433.091 211.934 433.045 211.744 433.045 211.524C433.045 211.304 433.091 211.114 433.183 210.954C433.275 210.794 433.399 210.672 433.555 210.588C433.711 210.5 433.887 210.456 434.083 210.456C434.275 210.456 434.447 210.5 434.599 210.588C434.755 210.672 434.879 210.794 434.971 210.954C435.063 211.114 435.109 211.304 435.109 211.524C435.109 211.744 435.063 211.934 434.971 212.094C434.879 212.254 434.755 212.378 434.599 212.466C434.443 212.55 434.269 212.592 434.077 212.592ZM433.849 214.728L436.219 210.528H436.969L434.599 214.728H433.849ZM434.077 212.058C434.193 212.058 434.293 212.014 434.377 211.926C434.461 211.834 434.503 211.7 434.503 211.524C434.503 211.348 434.461 211.214 434.377 211.122C434.297 211.03 434.197 210.984 434.077 210.984C433.957 210.984 433.855 211.03 433.771 211.122C433.691 211.214 433.651 211.348 433.651 211.524C433.651 211.7 433.691 211.834 433.771 211.926C433.855 212.014 433.957 212.058 434.077 212.058ZM436.765 214.8C436.573 214.8 436.399 214.758 436.243 214.674C436.087 214.586 435.963 214.462 435.871 214.302C435.779 214.142 435.733 213.952 435.733 213.732C435.733 213.512 435.779 213.324 435.871 213.168C435.963 213.008 436.087 212.886 436.243 212.802C436.399 212.714 436.575 212.67 436.771 212.67C436.963 212.67 437.135 212.714 437.287 212.802C437.443 212.886 437.567 213.008 437.659 213.168C437.751 213.324 437.797 213.512 437.797 213.732C437.797 213.952 437.751 214.142 437.659 214.302C437.567 214.462 437.443 214.586 437.287 214.674C437.135 214.758 436.961 214.8 436.765 214.8ZM436.765 214.266C436.885 214.266 436.985 214.222 437.065 214.134C437.149 214.042 437.191 213.908 437.191 213.732C437.191 213.556 437.149 213.422 437.065 213.33C436.985 213.238 436.885 213.192 436.765 213.192C436.645 213.192 436.543 213.238 436.459 213.33C436.379 213.422 436.339 213.556 436.339 213.732C436.339 213.908 436.379 214.042 436.459 214.134C436.543 214.222 436.645 214.266 436.765 214.266Z" fill="#001931"/>
<path d="M426.632 232.8C426.344 232.8 426.084 232.75 425.852 232.65C425.62 232.546 425.434 232.4 425.294 232.212C425.158 232.024 425.09 231.806 425.09 231.558C425.09 231.302 425.156 231.078 425.288 230.886C425.424 230.694 425.602 230.556 425.822 230.472C425.63 230.388 425.478 230.268 425.366 230.112C425.254 229.952 425.198 229.774 425.198 229.578C425.198 229.378 425.252 229.194 425.36 229.026C425.468 228.854 425.628 228.716 425.84 228.612C426.056 228.508 426.32 228.456 426.632 228.456C426.944 228.456 427.206 228.508 427.418 228.612C427.63 228.716 427.79 228.854 427.898 229.026C428.006 229.194 428.06 229.378 428.06 229.578C428.06 229.77 428.002 229.948 427.886 230.112C427.774 230.272 427.624 230.392 427.436 230.472C427.66 230.556 427.838 230.694 427.97 230.886C428.102 231.078 428.168 231.302 428.168 231.558C428.168 231.806 428.1 232.024 427.964 232.212C427.828 232.4 427.642 232.546 427.406 232.65C427.174 232.75 426.916 232.8 426.632 232.8ZM426.632 230.244C426.84 230.244 427.004 230.19 427.124 230.082C427.244 229.974 427.304 229.836 427.304 229.668C427.304 229.484 427.244 229.34 427.124 229.236C427.008 229.132 426.844 229.08 426.632 229.08C426.416 229.08 426.25 229.132 426.134 229.236C426.018 229.34 425.96 229.484 425.96 229.668C425.96 229.84 426.018 229.98 426.134 230.088C426.254 230.192 426.42 230.244 426.632 230.244ZM426.632 232.158C426.888 232.158 427.082 232.096 427.214 231.972C427.346 231.844 427.412 231.684 427.412 231.492C427.412 231.28 427.342 231.114 427.202 230.994C427.066 230.874 426.876 230.814 426.632 230.814C426.388 230.814 426.194 230.874 426.05 230.994C425.91 231.114 425.84 231.28 425.84 231.492C425.84 231.684 425.906 231.844 426.038 231.972C426.174 232.096 426.372 232.158 426.632 232.158ZM430.646 232.8C430.258 232.8 429.926 232.71 429.65 232.53C429.374 232.346 429.16 232.092 429.008 231.768C428.86 231.44 428.786 231.06 428.786 230.628C428.786 230.2 428.86 229.822 429.008 229.494C429.16 229.166 429.374 228.912 429.65 228.732C429.926 228.548 430.258 228.456 430.646 228.456C431.034 228.456 431.366 228.548 431.642 228.732C431.918 228.912 432.13 229.166 432.278 229.494C432.43 229.822 432.506 230.2 432.506 230.628C432.506 231.06 432.43 231.44 432.278 231.768C432.13 232.092 431.918 232.346 431.642 232.53C431.366 232.71 431.034 232.8 430.646 232.8ZM430.646 232.11C430.962 232.11 431.22 231.978 431.42 231.714C431.62 231.45 431.72 231.088 431.72 230.628C431.72 230.168 431.62 229.806 431.42 229.542C431.22 229.278 430.962 229.146 430.646 229.146C430.326 229.146 430.066 229.278 429.866 229.542C429.67 229.806 429.572 230.168 429.572 230.628C429.572 231.088 429.67 231.45 429.866 231.714C430.066 231.978 430.326 232.11 430.646 232.11ZM434.047 230.592C433.855 230.592 433.681 230.55 433.525 230.466C433.369 230.378 433.245 230.254 433.153 230.094C433.061 229.934 433.015 229.744 433.015 229.524C433.015 229.304 433.061 229.114 433.153 228.954C433.245 228.794 433.369 228.672 433.525 228.588C433.681 228.5 433.857 228.456 434.053 228.456C434.245 228.456 434.417 228.5 434.569 228.588C434.725 228.672 434.849 228.794 434.941 228.954C435.033 229.114 435.079 229.304 435.079 229.524C435.079 229.744 435.033 229.934 434.941 230.094C434.849 230.254 434.725 230.378 434.569 230.466C434.413 230.55 434.239 230.592 434.047 230.592ZM433.819 232.728L436.189 228.528H436.939L434.569 232.728H433.819ZM434.047 230.058C434.163 230.058 434.263 230.014 434.347 229.926C434.431 229.834 434.473 229.7 434.473 229.524C434.473 229.348 434.431 229.214 434.347 229.122C434.267 229.03 434.167 228.984 434.047 228.984C433.927 228.984 433.825 229.03 433.741 229.122C433.661 229.214 433.621 229.348 433.621 229.524C433.621 229.7 433.661 229.834 433.741 229.926C433.825 230.014 433.927 230.058 434.047 230.058ZM436.735 232.8C436.543 232.8 436.369 232.758 436.213 232.674C436.057 232.586 435.933 232.462 435.841 232.302C435.749 232.142 435.703 231.952 435.703 231.732C435.703 231.512 435.749 231.324 435.841 231.168C435.933 231.008 436.057 230.886 436.213 230.802C436.369 230.714 436.545 230.67 436.741 230.67C436.933 230.67 437.105 230.714 437.257 230.802C437.413 230.886 437.537 231.008 437.629 231.168C437.721 231.324 437.767 231.512 437.767 231.732C437.767 231.952 437.721 232.142 437.629 232.302C437.537 232.462 437.413 232.586 437.257 232.674C437.105 232.758 436.931 232.8 436.735 232.8ZM436.735 232.266C436.855 232.266 436.955 232.222 437.035 232.134C437.119 232.042 437.161 231.908 437.161 231.732C437.161 231.556 437.119 231.422 437.035 231.33C436.955 231.238 436.855 231.192 436.735 231.192C436.615 231.192 436.513 231.238 436.429 231.33C436.349 231.422 436.309 231.556 436.309 231.732C436.309 231.908 436.349 232.042 436.429 232.134C436.513 232.222 436.615 232.266 436.735 232.266Z" fill="#001931"/>
<path d="M425.39 250.728L426.974 247.182H424.904V246.528H427.766V247.074L426.188 250.728H425.39ZM430.036 250.8C429.648 250.8 429.316 250.71 429.04 250.53C428.764 250.346 428.55 250.092 428.398 249.768C428.25 249.44 428.176 249.06 428.176 248.628C428.176 248.2 428.25 247.822 428.398 247.494C428.55 247.166 428.764 246.912 429.04 246.732C429.316 246.548 429.648 246.456 430.036 246.456C430.424 246.456 430.756 246.548 431.032 246.732C431.308 246.912 431.52 247.166 431.668 247.494C431.82 247.822 431.896 248.2 431.896 248.628C431.896 249.06 431.82 249.44 431.668 249.768C431.52 250.092 431.308 250.346 431.032 250.53C430.756 250.71 430.424 250.8 430.036 250.8ZM430.036 250.11C430.352 250.11 430.61 249.978 430.81 249.714C431.01 249.45 431.11 249.088 431.11 248.628C431.11 248.168 431.01 247.806 430.81 247.542C430.61 247.278 430.352 247.146 430.036 247.146C429.716 247.146 429.456 247.278 429.256 247.542C429.06 247.806 428.962 248.168 428.962 248.628C428.962 249.088 429.06 249.45 429.256 249.714C429.456 249.978 429.716 250.11 430.036 250.11ZM433.438 248.592C433.246 248.592 433.072 248.55 432.916 248.466C432.76 248.378 432.636 248.254 432.544 248.094C432.452 247.934 432.406 247.744 432.406 247.524C432.406 247.304 432.452 247.114 432.544 246.954C432.636 246.794 432.76 246.672 432.916 246.588C433.072 246.5 433.248 246.456 433.444 246.456C433.636 246.456 433.808 246.5 433.96 246.588C434.116 246.672 434.24 246.794 434.332 246.954C434.424 247.114 434.47 247.304 434.47 247.524C434.47 247.744 434.424 247.934 434.332 248.094C434.24 248.254 434.116 248.378 433.96 248.466C433.804 248.55 433.63 248.592 433.438 248.592ZM433.21 250.728L435.58 246.528H436.33L433.96 250.728H433.21ZM433.438 248.058C433.554 248.058 433.654 248.014 433.738 247.926C433.822 247.834 433.864 247.7 433.864 247.524C433.864 247.348 433.822 247.214 433.738 247.122C433.658 247.03 433.558 246.984 433.438 246.984C433.318 246.984 433.216 247.03 433.132 247.122C433.052 247.214 433.012 247.348 433.012 247.524C433.012 247.7 433.052 247.834 433.132 247.926C433.216 248.014 433.318 248.058 433.438 248.058ZM436.126 250.8C435.934 250.8 435.76 250.758 435.604 250.674C435.448 250.586 435.324 250.462 435.232 250.302C435.14 250.142 435.094 249.952 435.094 249.732C435.094 249.512 435.14 249.324 435.232 249.168C435.324 249.008 435.448 248.886 435.604 248.802C435.76 248.714 435.936 248.67 436.132 248.67C436.324 248.67 436.496 248.714 436.648 248.802C436.804 248.886 436.928 249.008 437.02 249.168C437.112 249.324 437.158 249.512 437.158 249.732C437.158 249.952 437.112 250.142 437.02 250.302C436.928 250.462 436.804 250.586 436.648 250.674C436.496 250.758 436.322 250.8 436.126 250.8ZM436.126 250.266C436.246 250.266 436.346 250.222 436.426 250.134C436.51 250.042 436.552 249.908 436.552 249.732C436.552 249.556 436.51 249.422 436.426 249.33C436.346 249.238 436.246 249.192 436.126 249.192C436.006 249.192 435.904 249.238 435.82 249.33C435.74 249.422 435.7 249.556 435.7 249.732C435.7 249.908 435.74 250.042 435.82 250.134C435.904 250.222 436.006 250.266 436.126 250.266Z" fill="#001931"/>
<path d="M426.728 268.8C426.412 268.8 426.146 268.742 425.93 268.626C425.714 268.51 425.54 268.354 425.408 268.158C425.276 267.962 425.18 267.744 425.12 267.504C425.064 267.264 425.036 267.018 425.036 266.766C425.036 266.298 425.102 265.892 425.234 265.548C425.366 265.2 425.556 264.932 425.804 264.744C426.052 264.552 426.352 264.456 426.704 264.456C426.992 264.456 427.236 264.514 427.436 264.63C427.64 264.742 427.798 264.89 427.91 265.074C428.022 265.258 428.088 265.456 428.108 265.668H427.394C427.358 265.484 427.28 265.342 427.16 265.242C427.04 265.142 426.886 265.092 426.698 265.092C426.43 265.092 426.214 265.216 426.05 265.464C425.886 265.708 425.798 266.082 425.786 266.586C425.882 266.422 426.026 266.286 426.218 266.178C426.41 266.07 426.624 266.016 426.86 266.016C427.092 266.016 427.31 266.072 427.514 266.184C427.718 266.296 427.882 266.454 428.006 266.658C428.134 266.862 428.198 267.102 428.198 267.378C428.198 267.63 428.136 267.864 428.012 268.08C427.892 268.296 427.72 268.47 427.496 268.602C427.276 268.734 427.02 268.8 426.728 268.8ZM426.686 268.14C426.91 268.14 427.094 268.072 427.238 267.936C427.386 267.796 427.46 267.62 427.46 267.408C427.46 267.184 427.386 267.004 427.238 266.868C427.09 266.732 426.902 266.664 426.674 266.664C426.526 266.664 426.392 266.698 426.272 266.766C426.156 266.83 426.064 266.918 425.996 267.03C425.928 267.138 425.894 267.26 425.894 267.396C425.894 267.612 425.968 267.79 426.116 267.93C426.268 268.07 426.458 268.14 426.686 268.14ZM430.675 268.8C430.287 268.8 429.955 268.71 429.679 268.53C429.403 268.346 429.189 268.092 429.037 267.768C428.889 267.44 428.815 267.06 428.815 266.628C428.815 266.2 428.889 265.822 429.037 265.494C429.189 265.166 429.403 264.912 429.679 264.732C429.955 264.548 430.287 264.456 430.675 264.456C431.063 264.456 431.395 264.548 431.671 264.732C431.947 264.912 432.159 265.166 432.307 265.494C432.459 265.822 432.535 266.2 432.535 266.628C432.535 267.06 432.459 267.44 432.307 267.768C432.159 268.092 431.947 268.346 431.671 268.53C431.395 268.71 431.063 268.8 430.675 268.8ZM430.675 268.11C430.991 268.11 431.249 267.978 431.449 267.714C431.649 267.45 431.749 267.088 431.749 266.628C431.749 266.168 431.649 265.806 431.449 265.542C431.249 265.278 430.991 265.146 430.675 265.146C430.355 265.146 430.095 265.278 429.895 265.542C429.699 265.806 429.601 266.168 429.601 266.628C429.601 267.088 429.699 267.45 429.895 267.714C430.095 267.978 430.355 268.11 430.675 268.11ZM434.077 266.592C433.885 266.592 433.711 266.55 433.555 266.466C433.399 266.378 433.275 266.254 433.183 266.094C433.091 265.934 433.045 265.744 433.045 265.524C433.045 265.304 433.091 265.114 433.183 264.954C433.275 264.794 433.399 264.672 433.555 264.588C433.711 264.5 433.887 264.456 434.083 264.456C434.275 264.456 434.447 264.5 434.599 264.588C434.755 264.672 434.879 264.794 434.971 264.954C435.063 265.114 435.109 265.304 435.109 265.524C435.109 265.744 435.063 265.934 434.971 266.094C434.879 266.254 434.755 266.378 434.599 266.466C434.443 266.55 434.269 266.592 434.077 266.592ZM433.849 268.728L436.219 264.528H436.969L434.599 268.728H433.849ZM434.077 266.058C434.193 266.058 434.293 266.014 434.377 265.926C434.461 265.834 434.503 265.7 434.503 265.524C434.503 265.348 434.461 265.214 434.377 265.122C434.297 265.03 434.197 264.984 434.077 264.984C433.957 264.984 433.855 265.03 433.771 265.122C433.691 265.214 433.651 265.348 433.651 265.524C433.651 265.7 433.691 265.834 433.771 265.926C433.855 266.014 433.957 266.058 434.077 266.058ZM436.765 268.8C436.573 268.8 436.399 268.758 436.243 268.674C436.087 268.586 435.963 268.462 435.871 268.302C435.779 268.142 435.733 267.952 435.733 267.732C435.733 267.512 435.779 267.324 435.871 267.168C435.963 267.008 436.087 266.886 436.243 266.802C436.399 266.714 436.575 266.67 436.771 266.67C436.963 266.67 437.135 266.714 437.287 266.802C437.443 266.886 437.567 267.008 437.659 267.168C437.751 267.324 437.797 267.512 437.797 267.732C437.797 267.952 437.751 268.142 437.659 268.302C437.567 268.462 437.443 268.586 437.287 268.674C437.135 268.758 436.961 268.8 436.765 268.8ZM436.765 268.266C436.885 268.266 436.985 268.222 437.065 268.134C437.149 268.042 437.191 267.908 437.191 267.732C437.191 267.556 437.149 267.422 437.065 267.33C436.985 267.238 436.885 267.192 436.765 267.192C436.645 267.192 436.543 267.238 436.459 267.33C436.379 267.422 436.339 267.556 436.339 267.732C436.339 267.908 436.379 268.042 436.459 268.134C436.543 268.222 436.645 268.266 436.765 268.266Z" fill="#001931"/>
<path d="M426.656 286.8C426.348 286.8 426.082 286.746 425.858 286.638C425.638 286.53 425.464 286.382 425.336 286.194C425.212 286.002 425.14 285.786 425.12 285.546H425.87C425.906 285.718 425.994 285.862 426.134 285.978C426.274 286.09 426.448 286.146 426.656 286.146C426.88 286.146 427.062 286.064 427.202 285.9C427.346 285.736 427.418 285.532 427.418 285.288C427.418 285.036 427.346 284.836 427.202 284.688C427.062 284.54 426.884 284.466 426.668 284.466C426.488 284.466 426.332 284.51 426.2 284.598C426.068 284.686 425.974 284.796 425.918 284.928H425.18L425.54 282.528H427.868V283.2H426.116L425.924 284.172C426.012 284.076 426.132 283.998 426.284 283.938C426.436 283.874 426.606 283.842 426.794 283.842C427.094 283.842 427.344 283.91 427.544 284.046C427.744 284.178 427.896 284.354 428 284.574C428.104 284.79 428.156 285.026 428.156 285.282C428.156 285.574 428.092 285.834 427.964 286.062C427.84 286.29 427.664 286.47 427.436 286.602C427.212 286.734 426.952 286.8 426.656 286.8ZM430.593 286.8C430.205 286.8 429.873 286.71 429.597 286.53C429.321 286.346 429.107 286.092 428.955 285.768C428.807 285.44 428.733 285.06 428.733 284.628C428.733 284.2 428.807 283.822 428.955 283.494C429.107 283.166 429.321 282.912 429.597 282.732C429.873 282.548 430.205 282.456 430.593 282.456C430.981 282.456 431.313 282.548 431.589 282.732C431.865 282.912 432.077 283.166 432.225 283.494C432.377 283.822 432.453 284.2 432.453 284.628C432.453 285.06 432.377 285.44 432.225 285.768C432.077 286.092 431.865 286.346 431.589 286.53C431.313 286.71 430.981 286.8 430.593 286.8ZM430.593 286.11C430.909 286.11 431.167 285.978 431.367 285.714C431.567 285.45 431.667 285.088 431.667 284.628C431.667 284.168 431.567 283.806 431.367 283.542C431.167 283.278 430.909 283.146 430.593 283.146C430.273 283.146 430.013 283.278 429.813 283.542C429.617 283.806 429.519 284.168 429.519 284.628C429.519 285.088 429.617 285.45 429.813 285.714C430.013 285.978 430.273 286.11 430.593 286.11ZM433.995 284.592C433.803 284.592 433.629 284.55 433.473 284.466C433.317 284.378 433.193 284.254 433.101 284.094C433.009 283.934 432.963 283.744 432.963 283.524C432.963 283.304 433.009 283.114 433.101 282.954C433.193 282.794 433.317 282.672 433.473 282.588C433.629 282.5 433.805 282.456 434.001 282.456C434.193 282.456 434.365 282.5 434.517 282.588C434.673 282.672 434.797 282.794 434.889 282.954C434.981 283.114 435.027 283.304 435.027 283.524C435.027 283.744 434.981 283.934 434.889 284.094C434.797 284.254 434.673 284.378 434.517 284.466C434.361 284.55 434.187 284.592 433.995 284.592ZM433.767 286.728L436.137 282.528H436.887L434.517 286.728H433.767ZM433.995 284.058C434.111 284.058 434.211 284.014 434.295 283.926C434.379 283.834 434.421 283.7 434.421 283.524C434.421 283.348 434.379 283.214 434.295 283.122C434.215 283.03 434.115 282.984 433.995 282.984C433.875 282.984 433.773 283.03 433.689 283.122C433.609 283.214 433.569 283.348 433.569 283.524C433.569 283.7 433.609 283.834 433.689 283.926C433.773 284.014 433.875 284.058 433.995 284.058ZM436.683 286.8C436.491 286.8 436.317 286.758 436.161 286.674C436.005 286.586 435.881 286.462 435.789 286.302C435.697 286.142 435.651 285.952 435.651 285.732C435.651 285.512 435.697 285.324 435.789 285.168C435.881 285.008 436.005 284.886 436.161 284.802C436.317 284.714 436.493 284.67 436.689 284.67C436.881 284.67 437.053 284.714 437.205 284.802C437.361 284.886 437.485 285.008 437.577 285.168C437.669 285.324 437.715 285.512 437.715 285.732C437.715 285.952 437.669 286.142 437.577 286.302C437.485 286.462 437.361 286.586 437.205 286.674C437.053 286.758 436.879 286.8 436.683 286.8ZM436.683 286.266C436.803 286.266 436.903 286.222 436.983 286.134C437.067 286.042 437.109 285.908 437.109 285.732C437.109 285.556 437.067 285.422 436.983 285.33C436.903 285.238 436.803 285.192 436.683 285.192C436.563 285.192 436.461 285.238 436.377 285.33C436.297 285.422 436.257 285.556 436.257 285.732C436.257 285.908 436.297 286.042 436.377 286.134C436.461 286.222 436.563 286.266 436.683 286.266Z" fill="#001931"/>
<path d="M427.07 304.728V303.948H425V303.336L426.968 300.528H427.838V303.282H428.39V303.948H427.838V304.728H427.07ZM425.822 303.282H427.118V301.374L425.822 303.282ZM430.716 304.8C430.328 304.8 429.996 304.71 429.72 304.53C429.444 304.346 429.23 304.092 429.078 303.768C428.93 303.44 428.856 303.06 428.856 302.628C428.856 302.2 428.93 301.822 429.078 301.494C429.23 301.166 429.444 300.912 429.72 300.732C429.996 300.548 430.328 300.456 430.716 300.456C431.104 300.456 431.436 300.548 431.712 300.732C431.988 300.912 432.2 301.166 432.348 301.494C432.5 301.822 432.576 302.2 432.576 302.628C432.576 303.06 432.5 303.44 432.348 303.768C432.2 304.092 431.988 304.346 431.712 304.53C431.436 304.71 431.104 304.8 430.716 304.8ZM430.716 304.11C431.032 304.11 431.29 303.978 431.49 303.714C431.69 303.45 431.79 303.088 431.79 302.628C431.79 302.168 431.69 301.806 431.49 301.542C431.29 301.278 431.032 301.146 430.716 301.146C430.396 301.146 430.136 301.278 429.936 301.542C429.74 301.806 429.642 302.168 429.642 302.628C429.642 303.088 429.74 303.45 429.936 303.714C430.136 303.978 430.396 304.11 430.716 304.11ZM434.118 302.592C433.926 302.592 433.752 302.55 433.596 302.466C433.44 302.378 433.316 302.254 433.224 302.094C433.132 301.934 433.086 301.744 433.086 301.524C433.086 301.304 433.132 301.114 433.224 300.954C433.316 300.794 433.44 300.672 433.596 300.588C433.752 300.5 433.928 300.456 434.124 300.456C434.316 300.456 434.488 300.5 434.64 300.588C434.796 300.672 434.92 300.794 435.012 300.954C435.104 301.114 435.15 301.304 435.15 301.524C435.15 301.744 435.104 301.934 435.012 302.094C434.92 302.254 434.796 302.378 434.64 302.466C434.484 302.55 434.31 302.592 434.118 302.592ZM433.89 304.728L436.26 300.528H437.01L434.64 304.728H433.89ZM434.118 302.058C434.234 302.058 434.334 302.014 434.418 301.926C434.502 301.834 434.544 301.7 434.544 301.524C434.544 301.348 434.502 301.214 434.418 301.122C434.338 301.03 434.238 300.984 434.118 300.984C433.998 300.984 433.896 301.03 433.812 301.122C433.732 301.214 433.692 301.348 433.692 301.524C433.692 301.7 433.732 301.834 433.812 301.926C433.896 302.014 433.998 302.058 434.118 302.058ZM436.806 304.8C436.614 304.8 436.44 304.758 436.284 304.674C436.128 304.586 436.004 304.462 435.912 304.302C435.82 304.142 435.774 303.952 435.774 303.732C435.774 303.512 435.82 303.324 435.912 303.168C436.004 303.008 436.128 302.886 436.284 302.802C436.44 302.714 436.616 302.67 436.812 302.67C437.004 302.67 437.176 302.714 437.328 302.802C437.484 302.886 437.608 303.008 437.7 303.168C437.792 303.324 437.838 303.512 437.838 303.732C437.838 303.952 437.792 304.142 437.7 304.302C437.608 304.462 437.484 304.586 437.328 304.674C437.176 304.758 437.002 304.8 436.806 304.8ZM436.806 304.266C436.926 304.266 437.026 304.222 437.106 304.134C437.19 304.042 437.232 303.908 437.232 303.732C437.232 303.556 437.19 303.422 437.106 303.33C437.026 303.238 436.926 303.192 436.806 303.192C436.686 303.192 436.584 303.238 436.5 303.33C436.42 303.422 436.38 303.556 436.38 303.732C436.38 303.908 436.42 304.042 436.5 304.134C436.584 304.222 436.686 304.266 436.806 304.266Z" fill="#001931"/>
<path d="M426.524 322.8C426.248 322.8 425.998 322.752 425.774 322.656C425.55 322.556 425.37 322.404 425.234 322.2C425.098 321.996 425.026 321.74 425.018 321.432H425.774C425.778 321.636 425.844 321.808 425.972 321.948C426.104 322.084 426.288 322.152 426.524 322.152C426.748 322.152 426.92 322.09 427.04 321.966C427.16 321.842 427.22 321.686 427.22 321.498C427.22 321.278 427.14 321.112 426.98 321C426.824 320.884 426.622 320.826 426.374 320.826H426.062V320.196H426.38C426.584 320.196 426.754 320.148 426.89 320.052C427.026 319.956 427.094 319.814 427.094 319.626C427.094 319.47 427.042 319.346 426.938 319.254C426.838 319.158 426.698 319.11 426.518 319.11C426.322 319.11 426.168 319.168 426.056 319.284C425.948 319.4 425.888 319.542 425.876 319.71H425.126C425.142 319.322 425.276 319.016 425.528 318.792C425.784 318.568 426.114 318.456 426.518 318.456C426.806 318.456 427.048 318.508 427.244 318.612C427.444 318.712 427.594 318.846 427.694 319.014C427.798 319.182 427.85 319.368 427.85 319.572C427.85 319.808 427.784 320.008 427.652 320.172C427.524 320.332 427.364 320.44 427.172 320.496C427.408 320.544 427.6 320.66 427.748 320.844C427.896 321.024 427.97 321.252 427.97 321.528C427.97 321.76 427.914 321.972 427.802 322.164C427.69 322.356 427.526 322.51 427.31 322.626C427.098 322.742 426.836 322.8 426.524 322.8ZM430.446 322.8C430.058 322.8 429.726 322.71 429.45 322.53C429.174 322.346 428.96 322.092 428.808 321.768C428.66 321.44 428.586 321.06 428.586 320.628C428.586 320.2 428.66 319.822 428.808 319.494C428.96 319.166 429.174 318.912 429.45 318.732C429.726 318.548 430.058 318.456 430.446 318.456C430.834 318.456 431.166 318.548 431.442 318.732C431.718 318.912 431.93 319.166 432.078 319.494C432.23 319.822 432.306 320.2 432.306 320.628C432.306 321.06 432.23 321.44 432.078 321.768C431.93 322.092 431.718 322.346 431.442 322.53C431.166 322.71 430.834 322.8 430.446 322.8ZM430.446 322.11C430.762 322.11 431.02 321.978 431.22 321.714C431.42 321.45 431.52 321.088 431.52 320.628C431.52 320.168 431.42 319.806 431.22 319.542C431.02 319.278 430.762 319.146 430.446 319.146C430.126 319.146 429.866 319.278 429.666 319.542C429.47 319.806 429.372 320.168 429.372 320.628C429.372 321.088 429.47 321.45 429.666 321.714C429.866 321.978 430.126 322.11 430.446 322.11ZM433.848 320.592C433.656 320.592 433.482 320.55 433.326 320.466C433.17 320.378 433.046 320.254 432.954 320.094C432.862 319.934 432.816 319.744 432.816 319.524C432.816 319.304 432.862 319.114 432.954 318.954C433.046 318.794 433.17 318.672 433.326 318.588C433.482 318.5 433.658 318.456 433.854 318.456C434.046 318.456 434.218 318.5 434.37 318.588C434.526 318.672 434.65 318.794 434.742 318.954C434.834 319.114 434.88 319.304 434.88 319.524C434.88 319.744 434.834 319.934 434.742 320.094C434.65 320.254 434.526 320.378 434.37 320.466C434.214 320.55 434.04 320.592 433.848 320.592ZM433.62 322.728L435.99 318.528H436.74L434.37 322.728H433.62ZM433.848 320.058C433.964 320.058 434.064 320.014 434.148 319.926C434.232 319.834 434.274 319.7 434.274 319.524C434.274 319.348 434.232 319.214 434.148 319.122C434.068 319.03 433.968 318.984 433.848 318.984C433.728 318.984 433.626 319.03 433.542 319.122C433.462 319.214 433.422 319.348 433.422 319.524C433.422 319.7 433.462 319.834 433.542 319.926C433.626 320.014 433.728 320.058 433.848 320.058ZM436.536 322.8C436.344 322.8 436.17 322.758 436.014 322.674C435.858 322.586 435.734 322.462 435.642 322.302C435.55 322.142 435.504 321.952 435.504 321.732C435.504 321.512 435.55 321.324 435.642 321.168C435.734 321.008 435.858 320.886 436.014 320.802C436.17 320.714 436.346 320.67 436.542 320.67C436.734 320.67 436.906 320.714 437.058 320.802C437.214 320.886 437.338 321.008 437.43 321.168C437.522 321.324 437.568 321.512 437.568 321.732C437.568 321.952 437.522 322.142 437.43 322.302C437.338 322.462 437.214 322.586 437.058 322.674C436.906 322.758 436.732 322.8 436.536 322.8ZM436.536 322.266C436.656 322.266 436.756 322.222 436.836 322.134C436.92 322.042 436.962 321.908 436.962 321.732C436.962 321.556 436.92 321.422 436.836 321.33C436.756 321.238 436.656 321.192 436.536 321.192C436.416 321.192 436.314 321.238 436.23 321.33C436.15 321.422 436.11 321.556 436.11 321.732C436.11 321.908 436.15 322.042 436.23 322.134C436.314 322.222 436.416 322.266 436.536 322.266Z" fill="#001931"/>
<path d="M425.048 340.728V340.17C425.304 339.958 425.552 339.748 425.792 339.54C426.036 339.332 426.252 339.126 426.44 338.922C426.632 338.718 426.784 338.52 426.896 338.328C427.012 338.132 427.07 337.942 427.07 337.758C427.07 337.586 427.022 337.434 426.926 337.302C426.834 337.17 426.68 337.104 426.464 337.104C426.244 337.104 426.078 337.176 425.966 337.32C425.854 337.464 425.798 337.638 425.798 337.842H425.054C425.062 337.534 425.13 337.278 425.258 337.074C425.386 336.866 425.556 336.712 425.768 336.612C425.98 336.508 426.218 336.456 426.482 336.456C426.91 336.456 427.242 336.574 427.478 336.81C427.718 337.042 427.838 337.344 427.838 337.716C427.838 337.948 427.784 338.174 427.676 338.394C427.572 338.614 427.434 338.826 427.262 339.03C427.09 339.234 426.904 339.426 426.704 339.606C426.504 339.782 426.31 339.946 426.122 340.098H427.94V340.728H425.048ZM430.271 340.8C429.883 340.8 429.551 340.71 429.275 340.53C428.999 340.346 428.785 340.092 428.633 339.768C428.485 339.44 428.411 339.06 428.411 338.628C428.411 338.2 428.485 337.822 428.633 337.494C428.785 337.166 428.999 336.912 429.275 336.732C429.551 336.548 429.883 336.456 430.271 336.456C430.659 336.456 430.991 336.548 431.267 336.732C431.543 336.912 431.755 337.166 431.903 337.494C432.055 337.822 432.131 338.2 432.131 338.628C432.131 339.06 432.055 339.44 431.903 339.768C431.755 340.092 431.543 340.346 431.267 340.53C430.991 340.71 430.659 340.8 430.271 340.8ZM430.271 340.11C430.587 340.11 430.845 339.978 431.045 339.714C431.245 339.45 431.345 339.088 431.345 338.628C431.345 338.168 431.245 337.806 431.045 337.542C430.845 337.278 430.587 337.146 430.271 337.146C429.951 337.146 429.691 337.278 429.491 337.542C429.295 337.806 429.197 338.168 429.197 338.628C429.197 339.088 429.295 339.45 429.491 339.714C429.691 339.978 429.951 340.11 430.271 340.11ZM433.672 338.592C433.48 338.592 433.306 338.55 433.15 338.466C432.994 338.378 432.87 338.254 432.778 338.094C432.686 337.934 432.64 337.744 432.64 337.524C432.64 337.304 432.686 337.114 432.778 336.954C432.87 336.794 432.994 336.672 433.15 336.588C433.306 336.5 433.482 336.456 433.678 336.456C433.87 336.456 434.042 336.5 434.194 336.588C434.35 336.672 434.474 336.794 434.566 336.954C434.658 337.114 434.704 337.304 434.704 337.524C434.704 337.744 434.658 337.934 434.566 338.094C434.474 338.254 434.35 338.378 434.194 338.466C434.038 338.55 433.864 338.592 433.672 338.592ZM433.444 340.728L435.814 336.528H436.564L434.194 340.728H433.444ZM433.672 338.058C433.788 338.058 433.888 338.014 433.972 337.926C434.056 337.834 434.098 337.7 434.098 337.524C434.098 337.348 434.056 337.214 433.972 337.122C433.892 337.03 433.792 336.984 433.672 336.984C433.552 336.984 433.45 337.03 433.366 337.122C433.286 337.214 433.246 337.348 433.246 337.524C433.246 337.7 433.286 337.834 433.366 337.926C433.45 338.014 433.552 338.058 433.672 338.058ZM436.36 340.8C436.168 340.8 435.994 340.758 435.838 340.674C435.682 340.586 435.558 340.462 435.466 340.302C435.374 340.142 435.328 339.952 435.328 339.732C435.328 339.512 435.374 339.324 435.466 339.168C435.558 339.008 435.682 338.886 435.838 338.802C435.994 338.714 436.17 338.67 436.366 338.67C436.558 338.67 436.73 338.714 436.882 338.802C437.038 338.886 437.162 339.008 437.254 339.168C437.346 339.324 437.392 339.512 437.392 339.732C437.392 339.952 437.346 340.142 437.254 340.302C437.162 340.462 437.038 340.586 436.882 340.674C436.73 340.758 436.556 340.8 436.36 340.8ZM436.36 340.266C436.48 340.266 436.58 340.222 436.66 340.134C436.744 340.042 436.786 339.908 436.786 339.732C436.786 339.556 436.744 339.422 436.66 339.33C436.58 339.238 436.48 339.192 436.36 339.192C436.24 339.192 436.138 339.238 436.054 339.33C435.974 339.422 435.934 339.556 435.934 339.732C435.934 339.908 435.974 340.042 436.054 340.134C436.138 340.222 436.24 340.266 436.36 340.266Z" fill="#001931"/>
<path d="M425.606 358.728V355.404L424.916 355.566V354.978L425.93 354.528H426.404V358.728H425.606ZM428.941 358.8C428.553 358.8 428.221 358.71 427.945 358.53C427.669 358.346 427.455 358.092 427.303 357.768C427.155 357.44 427.081 357.06 427.081 356.628C427.081 356.2 427.155 355.822 427.303 355.494C427.455 355.166 427.669 354.912 427.945 354.732C428.221 354.548 428.553 354.456 428.941 354.456C429.329 354.456 429.661 354.548 429.937 354.732C430.213 354.912 430.425 355.166 430.573 355.494C430.725 355.822 430.801 356.2 430.801 356.628C430.801 357.06 430.725 357.44 430.573 357.768C430.425 358.092 430.213 358.346 429.937 358.53C429.661 358.71 429.329 358.8 428.941 358.8ZM428.941 358.11C429.257 358.11 429.515 357.978 429.715 357.714C429.915 357.45 430.015 357.088 430.015 356.628C430.015 356.168 429.915 355.806 429.715 355.542C429.515 355.278 429.257 355.146 428.941 355.146C428.621 355.146 428.361 355.278 428.161 355.542C427.965 355.806 427.867 356.168 427.867 356.628C427.867 357.088 427.965 357.45 428.161 357.714C428.361 357.978 428.621 358.11 428.941 358.11ZM432.342 356.592C432.15 356.592 431.976 356.55 431.82 356.466C431.664 356.378 431.54 356.254 431.448 356.094C431.356 355.934 431.31 355.744 431.31 355.524C431.31 355.304 431.356 355.114 431.448 354.954C431.54 354.794 431.664 354.672 431.82 354.588C431.976 354.5 432.152 354.456 432.348 354.456C432.54 354.456 432.712 354.5 432.864 354.588C433.02 354.672 433.144 354.794 433.236 354.954C433.328 355.114 433.374 355.304 433.374 355.524C433.374 355.744 433.328 355.934 433.236 356.094C433.144 356.254 433.02 356.378 432.864 356.466C432.708 356.55 432.534 356.592 432.342 356.592ZM432.114 358.728L434.484 354.528H435.234L432.864 358.728H432.114ZM432.342 356.058C432.458 356.058 432.558 356.014 432.642 355.926C432.726 355.834 432.768 355.7 432.768 355.524C432.768 355.348 432.726 355.214 432.642 355.122C432.562 355.03 432.462 354.984 432.342 354.984C432.222 354.984 432.12 355.03 432.036 355.122C431.956 355.214 431.916 355.348 431.916 355.524C431.916 355.7 431.956 355.834 432.036 355.926C432.12 356.014 432.222 356.058 432.342 356.058ZM435.03 358.8C434.838 358.8 434.664 358.758 434.508 358.674C434.352 358.586 434.228 358.462 434.136 358.302C434.044 358.142 433.998 357.952 433.998 357.732C433.998 357.512 434.044 357.324 434.136 357.168C434.228 357.008 434.352 356.886 434.508 356.802C434.664 356.714 434.84 356.67 435.036 356.67C435.228 356.67 435.4 356.714 435.552 356.802C435.708 356.886 435.832 357.008 435.924 357.168C436.016 357.324 436.062 357.512 436.062 357.732C436.062 357.952 436.016 358.142 435.924 358.302C435.832 358.462 435.708 358.586 435.552 358.674C435.4 358.758 435.226 358.8 435.03 358.8ZM435.03 358.266C435.15 358.266 435.25 358.222 435.33 358.134C435.414 358.042 435.456 357.908 435.456 357.732C435.456 357.556 435.414 357.422 435.33 357.33C435.25 357.238 435.15 357.192 435.03 357.192C434.91 357.192 434.808 357.238 434.724 357.33C434.644 357.422 434.604 357.556 434.604 357.732C434.604 357.908 434.644 358.042 434.724 358.134C434.808 358.222 434.91 358.266 435.03 358.266Z" fill="#001931"/>
<path d="M426.872 376.8C426.484 376.8 426.152 376.71 425.876 376.53C425.6 376.346 425.386 376.092 425.234 375.768C425.086 375.44 425.012 375.06 425.012 374.628C425.012 374.2 425.086 373.822 425.234 373.494C425.386 373.166 425.6 372.912 425.876 372.732C426.152 372.548 426.484 372.456 426.872 372.456C427.26 372.456 427.592 372.548 427.868 372.732C428.144 372.912 428.356 373.166 428.504 373.494C428.656 373.822 428.732 374.2 428.732 374.628C428.732 375.06 428.656 375.44 428.504 375.768C428.356 376.092 428.144 376.346 427.868 376.53C427.592 376.71 427.26 376.8 426.872 376.8ZM426.872 376.11C427.188 376.11 427.446 375.978 427.646 375.714C427.846 375.45 427.946 375.088 427.946 374.628C427.946 374.168 427.846 373.806 427.646 373.542C427.446 373.278 427.188 373.146 426.872 373.146C426.552 373.146 426.292 373.278 426.092 373.542C425.896 373.806 425.798 374.168 425.798 374.628C425.798 375.088 425.896 375.45 426.092 375.714C426.292 375.978 426.552 376.11 426.872 376.11ZM430.274 374.592C430.082 374.592 429.908 374.55 429.752 374.466C429.596 374.378 429.472 374.254 429.38 374.094C429.288 373.934 429.242 373.744 429.242 373.524C429.242 373.304 429.288 373.114 429.38 372.954C429.472 372.794 429.596 372.672 429.752 372.588C429.908 372.5 430.084 372.456 430.28 372.456C430.472 372.456 430.644 372.5 430.796 372.588C430.952 372.672 431.076 372.794 431.168 372.954C431.26 373.114 431.306 373.304 431.306 373.524C431.306 373.744 431.26 373.934 431.168 374.094C431.076 374.254 430.952 374.378 430.796 374.466C430.64 374.55 430.466 374.592 430.274 374.592ZM430.046 376.728L432.416 372.528H433.166L430.796 376.728H430.046ZM430.274 374.058C430.39 374.058 430.49 374.014 430.574 373.926C430.658 373.834 430.7 373.7 430.7 373.524C430.7 373.348 430.658 373.214 430.574 373.122C430.494 373.03 430.394 372.984 430.274 372.984C430.154 372.984 430.052 373.03 429.968 373.122C429.888 373.214 429.848 373.348 429.848 373.524C429.848 373.7 429.888 373.834 429.968 373.926C430.052 374.014 430.154 374.058 430.274 374.058ZM432.962 376.8C432.77 376.8 432.596 376.758 432.44 376.674C432.284 376.586 432.16 376.462 432.068 376.302C431.976 376.142 431.93 375.952 431.93 375.732C431.93 375.512 431.976 375.324 432.068 375.168C432.16 375.008 432.284 374.886 432.44 374.802C432.596 374.714 432.772 374.67 432.968 374.67C433.16 374.67 433.332 374.714 433.484 374.802C433.64 374.886 433.764 375.008 433.856 375.168C433.948 375.324 433.994 375.512 433.994 375.732C433.994 375.952 433.948 376.142 433.856 376.302C433.764 376.462 433.64 376.586 433.484 376.674C433.332 376.758 433.158 376.8 432.962 376.8ZM432.962 376.266C433.082 376.266 433.182 376.222 433.262 376.134C433.346 376.042 433.388 375.908 433.388 375.732C433.388 375.556 433.346 375.422 433.262 375.33C433.182 375.238 433.082 375.192 432.962 375.192C432.842 375.192 432.74 375.238 432.656 375.33C432.576 375.422 432.536 375.556 432.536 375.732C432.536 375.908 432.576 376.042 432.656 376.134C432.74 376.222 432.842 376.266 432.962 376.266Z" fill="#001931"/>
<path d="M67.7422 196.728H56.7422C55.0853 196.728 53.7422 198.071 53.7422 199.728C53.7422 201.384 55.0853 202.728 56.7422 202.728H67.7422C69.399 202.728 70.7422 201.384 70.7422 199.728C70.7422 198.071 69.399 196.728 67.7422 196.728Z" fill="#EAEDEF"/>
<path d="M67.7422 221.728H56.7422C55.0853 221.728 53.7422 223.071 53.7422 224.728C53.7422 226.384 55.0853 227.728 56.7422 227.728H67.7422C69.399 227.728 70.7422 226.384 70.7422 224.728C70.7422 223.071 69.399 221.728 67.7422 221.728Z" fill="#EAEDEF"/>
<path d="M67.7422 246.728H56.7422C55.0853 246.728 53.7422 248.071 53.7422 249.728C53.7422 251.384 55.0853 252.728 56.7422 252.728H67.7422C69.399 252.728 70.7422 251.384 70.7422 249.728C70.7422 248.071 69.399 246.728 67.7422 246.728Z" fill="#EAEDEF"/>
<path d="M67.7422 271.728H56.7422C55.0853 271.728 53.7422 273.071 53.7422 274.728C53.7422 276.384 55.0853 277.728 56.7422 277.728H67.7422C69.399 277.728 70.7422 276.384 70.7422 274.728C70.7422 273.071 69.399 271.728 67.7422 271.728Z" fill="#EAEDEF"/>
<path d="M67.7422 296.728H56.7422C55.0853 296.728 53.7422 298.071 53.7422 299.728C53.7422 301.384 55.0853 302.728 56.7422 302.728H67.7422C69.399 302.728 70.7422 301.384 70.7422 299.728C70.7422 298.071 69.399 296.728 67.7422 296.728Z" fill="#EAEDEF"/>
<path d="M67.7422 321.728H56.7422C55.0853 321.728 53.7422 323.071 53.7422 324.728C53.7422 326.384 55.0853 327.728 56.7422 327.728H67.7422C69.399 327.728 70.7422 326.384 70.7422 324.728C70.7422 323.071 69.399 321.728 67.7422 321.728Z" fill="#EAEDEF"/>
<path d="M67.7422 346.728H56.7422C55.0853 346.728 53.7422 348.071 53.7422 349.728C53.7422 351.384 55.0853 352.728 56.7422 352.728H67.7422C69.399 352.728 70.7422 351.384 70.7422 349.728C70.7422 348.071 69.399 346.728 67.7422 346.728Z" fill="#EAEDEF"/>
<path d="M67.7422 371.728H56.7422C55.0853 371.728 53.7422 373.071 53.7422 374.728C53.7422 376.384 55.0853 377.728 56.7422 377.728H67.7422C69.399 377.728 70.7422 376.384 70.7422 374.728C70.7422 373.071 69.399 371.728 67.7422 371.728Z" fill="#EAEDEF"/>
<path d="M109.742 392.728H87.7422C86.0853 392.728 84.7422 394.071 84.7422 395.728C84.7422 397.384 86.0853 398.728 87.7422 398.728H109.742C111.399 398.728 112.742 397.384 112.742 395.728C112.742 394.071 111.399 392.728 109.742 392.728Z" fill="#EAEDEF"/>
<path d="M157.742 392.728H135.742C134.085 392.728 132.742 394.071 132.742 395.728C132.742 397.384 134.085 398.728 135.742 398.728H157.742C159.399 398.728 160.742 397.384 160.742 395.728C160.742 394.071 159.399 392.728 157.742 392.728Z" fill="#EAEDEF"/>
<path d="M205.742 392.728H183.742C182.085 392.728 180.742 394.071 180.742 395.728C180.742 397.384 182.085 398.728 183.742 398.728H205.742C207.399 398.728 208.742 397.384 208.742 395.728C208.742 394.071 207.399 392.728 205.742 392.728Z" fill="#EAEDEF"/>
<path d="M253.742 392.728H231.742C230.085 392.728 228.742 394.071 228.742 395.728C228.742 397.384 230.085 398.728 231.742 398.728H253.742C255.399 398.728 256.742 397.384 256.742 395.728C256.742 394.071 255.399 392.728 253.742 392.728Z" fill="#EAEDEF"/>
<path d="M301.742 392.728H279.742C278.085 392.728 276.742 394.071 276.742 395.728C276.742 397.384 278.085 398.728 279.742 398.728H301.742C303.399 398.728 304.742 397.384 304.742 395.728C304.742 394.071 303.399 392.728 301.742 392.728Z" fill="#EAEDEF"/>
<path d="M349.742 392.728H327.742C326.085 392.728 324.742 394.071 324.742 395.728C324.742 397.384 326.085 398.728 327.742 398.728H349.742C351.399 398.728 352.742 397.384 352.742 395.728C352.742 394.071 351.399 392.728 349.742 392.728Z" fill="#EAEDEF"/>
<path d="M397.742 392.728H375.742C374.085 392.728 372.742 394.071 372.742 395.728C372.742 397.384 374.085 398.728 375.742 398.728H397.742C399.399 398.728 400.742 397.384 400.742 395.728C400.742 394.071 399.399 392.728 397.742 392.728Z" fill="#EAEDEF"/>
<g opacity="0.1">
<path d="M72.5156 377.022H398.87" stroke="black" stroke-width="0.775"/>
</g>
<g opacity="0.1">
<path d="M72.5156 335.062H398.87" stroke="black" stroke-width="0.775"/>
</g>
<g opacity="0.1">
<path d="M72.5156 292.246H398.87" stroke="black" stroke-width="0.775"/>
</g>
<path d="M388.835 281.728V377.028H349.719V281.728H388.835Z" fill="#3384FB"/>
<path d="M336.081 352.053V377.022H296.965V352.053H336.081Z" fill="#E3EEFE"/>
<path d="M283.327 216.786V377.023H244.211V216.786H283.327Z" fill="#3384FB"/>
<path d="M230.573 308.728V377.028H191.457V308.728H230.573Z" fill="#E3EEFE"/>
<path d="M177.815 293.727V377.027H138.699V293.727H177.815Z" fill="#3384FB"/>
<path d="M125.061 343.629V377.023H85.9453V343.629H125.061Z" fill="#E3EEFE"/>
<path d="M55.2382 157.846V142.446H58.0542V157.846H55.2382ZM61.039 157.846V142.446H66.693C67.925 142.446 68.937 142.658 69.729 143.084C70.5356 143.494 71.137 144.059 71.533 144.778C71.929 145.482 72.127 146.266 72.127 147.132C72.127 148.07 71.8776 148.928 71.379 149.706C70.895 150.483 70.1323 151.048 69.091 151.4L72.281 157.846H69.047L66.187 151.774H63.855V157.846H61.039ZM63.855 149.706H66.517C67.4556 149.706 68.145 149.478 68.585 149.024C69.025 148.569 69.245 147.968 69.245 147.22C69.245 146.486 69.025 145.9 68.585 145.46C68.1596 145.02 67.463 144.8 66.495 144.8H63.855V149.706ZM74.746 157.846V142.446H80.4C81.632 142.446 82.644 142.658 83.436 143.084C84.2427 143.494 84.844 144.059 85.24 144.778C85.636 145.482 85.834 146.266 85.834 147.132C85.834 148.07 85.5847 148.928 85.086 149.706C84.602 150.483 83.8393 151.048 82.798 151.4L85.988 157.846H82.754L79.894 151.774H77.562V157.846H74.746ZM77.562 149.706H80.224C81.1627 149.706 81.852 149.478 82.292 149.024C82.732 148.569 82.952 147.968 82.952 147.22C82.952 146.486 82.732 145.9 82.292 145.46C81.8667 145.02 81.17 144.8 80.202 144.8H77.562V149.706ZM93.4972 150.256V147.792H102.825V150.256H93.4972ZM93.4972 155.14V152.676H102.825V155.14H93.4972ZM116.383 158.11C115.254 158.11 114.279 157.912 113.457 157.516C112.651 157.12 112.013 156.577 111.543 155.888C111.089 155.184 110.825 154.392 110.751 153.512H113.501C113.633 154.142 113.956 154.67 114.469 155.096C114.983 155.506 115.621 155.712 116.383 155.712C117.205 155.712 117.872 155.411 118.385 154.81C118.913 154.208 119.177 153.46 119.177 152.566C119.177 151.642 118.913 150.908 118.385 150.366C117.872 149.823 117.219 149.552 116.427 149.552C115.767 149.552 115.195 149.713 114.711 150.036C114.227 150.358 113.883 150.762 113.677 151.246H110.971L112.291 142.446H120.827V144.91H114.403L113.699 148.474C114.022 148.122 114.462 147.836 115.019 147.616C115.577 147.381 116.2 147.264 116.889 147.264C117.989 147.264 118.906 147.513 119.639 148.012C120.373 148.496 120.93 149.141 121.311 149.948C121.693 150.74 121.883 151.605 121.883 152.544C121.883 153.614 121.649 154.568 121.179 155.404C120.725 156.24 120.079 156.9 119.243 157.384C118.422 157.868 117.469 158.11 116.383 158.11ZM123.936 157.846V155.8C124.875 155.022 125.784 154.252 126.664 153.49C127.559 152.727 128.351 151.972 129.04 151.224C129.744 150.476 130.302 149.75 130.712 149.046C131.138 148.327 131.35 147.63 131.35 146.956C131.35 146.325 131.174 145.768 130.822 145.284C130.485 144.8 129.92 144.558 129.128 144.558C128.322 144.558 127.713 144.822 127.302 145.35C126.892 145.878 126.686 146.516 126.686 147.264H123.958C123.988 146.134 124.237 145.196 124.706 144.448C125.176 143.685 125.799 143.12 126.576 142.754C127.354 142.372 128.226 142.182 129.194 142.182C130.764 142.182 131.981 142.614 132.846 143.48C133.726 144.33 134.166 145.438 134.166 146.802C134.166 147.652 133.968 148.481 133.572 149.288C133.191 150.094 132.685 150.872 132.054 151.62C131.424 152.368 130.742 153.072 130.008 153.732C129.275 154.377 128.564 154.978 127.874 155.536H134.54V157.846H123.936ZM140.047 150.014C139.343 150.014 138.705 149.86 138.133 149.552C137.561 149.229 137.106 148.774 136.769 148.188C136.431 147.601 136.263 146.904 136.263 146.098C136.263 145.291 136.431 144.594 136.769 144.008C137.106 143.421 137.561 142.974 138.133 142.666C138.705 142.343 139.35 142.182 140.069 142.182C140.773 142.182 141.403 142.343 141.961 142.666C142.533 142.974 142.987 143.421 143.325 144.008C143.662 144.594 143.831 145.291 143.831 146.098C143.831 146.904 143.662 147.601 143.325 148.188C142.987 148.774 142.533 149.229 141.961 149.552C141.389 149.86 140.751 150.014 140.047 150.014ZM139.211 157.846L147.901 142.446H150.651L141.961 157.846H139.211ZM140.047 148.056C140.472 148.056 140.839 147.894 141.147 147.572C141.455 147.234 141.609 146.743 141.609 146.098C141.609 145.452 141.455 144.961 141.147 144.624C140.853 144.286 140.487 144.118 140.047 144.118C139.607 144.118 139.233 144.286 138.925 144.624C138.631 144.961 138.485 145.452 138.485 146.098C138.485 146.743 138.631 147.234 138.925 147.572C139.233 147.894 139.607 148.056 140.047 148.056ZM149.903 158.11C149.199 158.11 148.561 157.956 147.989 157.648C147.417 157.325 146.962 156.87 146.625 156.284C146.287 155.697 146.119 155 146.119 154.194C146.119 153.387 146.287 152.698 146.625 152.126C146.962 151.539 147.417 151.092 147.989 150.784C148.561 150.461 149.206 150.3 149.925 150.3C150.629 150.3 151.259 150.461 151.817 150.784C152.389 151.092 152.843 151.539 153.181 152.126C153.518 152.698 153.687 153.387 153.687 154.194C153.687 155 153.518 155.697 153.181 156.284C152.843 156.87 152.389 157.325 151.817 157.648C151.259 157.956 150.621 158.11 149.903 158.11ZM149.903 156.152C150.343 156.152 150.709 155.99 151.003 155.668C151.311 155.33 151.465 154.839 151.465 154.194C151.465 153.548 151.311 153.057 151.003 152.72C150.709 152.382 150.343 152.214 149.903 152.214C149.463 152.214 149.089 152.382 148.781 152.72C148.487 153.057 148.341 153.548 148.341 154.194C148.341 154.839 148.487 155.33 148.781 155.668C149.089 155.99 149.463 156.152 149.903 156.152Z" fill="#091832"/>
<g filter="url(#filter1_d_1299_3567)">
<rect x="250.793" y="20.646" width="274.461" height="188.081" rx="16" fill="white"/>
</g>
<path d="M276.027 55.4148V47.0568H273.171V45.6148H280.689V47.0568H277.819V55.4148H276.027ZM284.049 55.5828C283.377 55.5828 282.77 55.4288 282.229 55.1208C281.697 54.8128 281.272 54.3881 280.955 53.8468C280.647 53.2961 280.493 52.6615 280.493 51.9428C280.493 51.2241 280.651 50.5941 280.969 50.0528C281.286 49.5021 281.711 49.0728 282.243 48.7648C282.784 48.4568 283.391 48.3028 284.063 48.3028C284.725 48.3028 285.323 48.4568 285.855 48.7648C286.396 49.0728 286.821 49.5021 287.129 50.0528C287.446 50.5941 287.605 51.2241 287.605 51.9428C287.605 52.6615 287.446 53.2961 287.129 53.8468C286.821 54.3881 286.396 54.8128 285.855 55.1208C285.313 55.4288 284.711 55.5828 284.049 55.5828ZM284.049 54.0288C284.515 54.0288 284.921 53.8561 285.267 53.5108C285.612 53.1561 285.785 52.6335 285.785 51.9428C285.785 51.2521 285.612 50.7341 285.267 50.3888C284.921 50.0341 284.52 49.8568 284.063 49.8568C283.587 49.8568 283.176 50.0341 282.831 50.3888C282.495 50.7341 282.327 51.2521 282.327 51.9428C282.327 52.6335 282.495 53.1561 282.831 53.5108C283.176 53.8561 283.582 54.0288 284.049 54.0288ZM292.027 55.4148C291.299 55.4148 290.716 55.2375 290.277 54.8828C289.839 54.5281 289.619 53.8981 289.619 52.9928V49.9688H288.429V48.4708H289.619L289.829 46.6088H291.411V48.4708H293.287V49.9688H291.411V53.0068C291.411 53.3428 291.481 53.5761 291.621 53.7068C291.771 53.8281 292.023 53.8888 292.377 53.8888H293.245V55.4148H292.027ZM297.22 55.5828C296.623 55.5828 296.133 55.4895 295.75 55.3028C295.367 55.1068 295.083 54.8501 294.896 54.5328C294.709 54.2155 294.616 53.8655 294.616 53.4828C294.616 52.8388 294.868 52.3161 295.372 51.9148C295.876 51.5135 296.632 51.3128 297.64 51.3128H299.404V51.1448C299.404 50.6688 299.269 50.3188 298.998 50.0948C298.727 49.8708 298.391 49.7588 297.99 49.7588C297.626 49.7588 297.309 49.8475 297.038 50.0248C296.767 50.1928 296.599 50.4448 296.534 50.7808H294.784C294.831 50.2768 294.999 49.8381 295.288 49.4648C295.587 49.0915 295.969 48.8068 296.436 48.6108C296.903 48.4055 297.425 48.3028 298.004 48.3028C298.993 48.3028 299.773 48.5501 300.342 49.0448C300.911 49.5395 301.196 50.2395 301.196 51.1448V55.4148H299.67L299.502 54.2948C299.297 54.6681 299.007 54.9761 298.634 55.2188C298.27 55.4615 297.799 55.5828 297.22 55.5828ZM297.626 54.1828C298.139 54.1828 298.536 54.0148 298.816 53.6788C299.105 53.3428 299.287 52.9275 299.362 52.4328H297.836C297.36 52.4328 297.019 52.5215 296.814 52.6988C296.609 52.8668 296.506 53.0768 296.506 53.3288C296.506 53.5995 296.609 53.8095 296.814 53.9588C297.019 54.1081 297.29 54.1828 297.626 54.1828ZM302.906 55.4148V45.3348H304.698V55.4148H302.906ZM309.907 55.4148V45.6148H313.533C314.317 45.6148 314.966 45.7455 315.479 46.0068C315.992 46.2681 316.375 46.6275 316.627 47.0848C316.879 47.5421 317.005 48.0555 317.005 48.6248C317.005 49.1661 316.884 49.6655 316.641 50.1228C316.398 50.5708 316.02 50.9348 315.507 51.2148C314.994 51.4855 314.336 51.6208 313.533 51.6208H311.699V55.4148H309.907ZM311.699 50.1648H313.421C314.046 50.1648 314.494 50.0295 314.765 49.7588C315.045 49.4788 315.185 49.1008 315.185 48.6248C315.185 48.1395 315.045 47.7615 314.765 47.4908C314.494 47.2108 314.046 47.0708 313.421 47.0708H311.699V50.1648ZM318.369 55.4148V48.4708H319.965L320.133 49.7728C320.385 49.3248 320.726 48.9701 321.155 48.7088C321.594 48.4381 322.107 48.3028 322.695 48.3028V50.1928H322.191C321.799 50.1928 321.449 50.2535 321.141 50.3748C320.833 50.4961 320.59 50.7061 320.413 51.0048C320.245 51.3035 320.161 51.7188 320.161 52.2508V55.4148H318.369ZM327.129 55.5828C326.457 55.5828 325.85 55.4288 325.309 55.1208C324.777 54.8128 324.352 54.3881 324.035 53.8468C323.727 53.2961 323.573 52.6615 323.573 51.9428C323.573 51.2241 323.731 50.5941 324.049 50.0528C324.366 49.5021 324.791 49.0728 325.323 48.7648C325.864 48.4568 326.471 48.3028 327.143 48.3028C327.805 48.3028 328.403 48.4568 328.935 48.7648C329.476 49.0728 329.901 49.5021 330.209 50.0528C330.526 50.5941 330.685 51.2241 330.685 51.9428C330.685 52.6615 330.526 53.2961 330.209 53.8468C329.901 54.3881 329.476 54.8128 328.935 55.1208C328.393 55.4288 327.791 55.5828 327.129 55.5828ZM327.129 54.0288C327.595 54.0288 328.001 53.8561 328.347 53.5108C328.692 53.1561 328.865 52.6335 328.865 51.9428C328.865 51.2521 328.692 50.7341 328.347 50.3888C328.001 50.0341 327.6 49.8568 327.143 49.8568C326.667 49.8568 326.256 50.0341 325.911 50.3888C325.575 50.7341 325.407 51.2521 325.407 51.9428C325.407 52.6335 325.575 53.1561 325.911 53.5108C326.256 53.8561 326.662 54.0288 327.129 54.0288ZM332.609 55.4148V49.9688H331.657V48.4708H332.609V47.6588C332.609 46.8188 332.819 46.2215 333.239 45.8668C333.668 45.5121 334.247 45.3348 334.975 45.3348H335.745V46.8608H335.255C334.947 46.8608 334.728 46.9215 334.597 47.0428C334.466 47.1641 334.401 47.3695 334.401 47.6588V48.4708H338.881V55.4148H337.089V49.9688H334.401V55.4148H332.609ZM337.999 47.4768C337.672 47.4768 337.402 47.3788 337.187 47.1828C336.982 46.9868 336.879 46.7395 336.879 46.4408C336.879 46.1421 336.982 45.8995 337.187 45.7128C337.402 45.5168 337.672 45.4188 337.999 45.4188C338.326 45.4188 338.592 45.5168 338.797 45.7128C339.012 45.8995 339.119 46.1421 339.119 46.4408C339.119 46.7395 339.012 46.9868 338.797 47.1828C338.592 47.3788 338.326 47.4768 337.999 47.4768ZM343.871 55.4148C343.143 55.4148 342.56 55.2375 342.121 54.8828C341.683 54.5281 341.463 53.8981 341.463 52.9928V49.9688H340.273V48.4708H341.463L341.673 46.6088H343.255V48.4708H345.131V49.9688H343.255V53.0068C343.255 53.3428 343.325 53.5761 343.465 53.7068C343.615 53.8281 343.867 53.8888 344.221 53.8888H345.089V55.4148H343.871Z" fill="#001931"/>
<path d="M259.348 170.306C261.397 165.872 266.279 157.276 272.822 157.474C279.365 157.672 283.701 175.805 291.178 174.477C298.655 173.148 306.101 135.27 314.3 135.442C322.498 135.613 320.483 144.378 327.072 143.074C333.66 141.77 331.707 137.822 335.738 138.774C339.769 139.726 356.608 171.03 362.543 170.307C368.479 169.584 375.588 160.84 379.224 161.551C382.86 162.261 389.35 170.131 393.201 167.43C397.051 164.73 410.859 133.383 421.913 132.935C432.968 132.488 437.029 157.036 447.428 157.473C457.828 157.911 459.417 150.01 467.521 150.738C475.625 151.465 476.588 158.496 484.956 157.473C493.324 156.451 503.307 121.006 516.393 119.521" stroke="#3384FB" stroke-width="2"/>
<path d="M259.348 170.306C261.398 165.872 266.28 157.276 272.822 157.474C279.365 157.672 283.702 175.805 291.179 174.477C298.656 173.148 306.102 135.27 314.3 135.441C322.499 135.612 320.484 144.378 327.073 143.074C333.661 141.77 331.708 137.822 335.738 138.774C339.769 139.725 356.609 171.03 362.544 170.307C368.479 169.584 375.588 160.84 379.224 161.551C382.86 162.261 389.351 170.13 393.202 167.43C397.052 164.73 410.86 133.383 421.914 132.935C432.969 132.488 437.03 157.036 447.429 157.473C457.828 157.911 459.418 150.01 467.522 150.737C475.625 151.465 476.589 158.496 484.957 157.473C493.325 156.451 503.307 121.006 516.394 119.52C517.087 119.027 516.394 197.99 516.394 197.99H259.348L259.348 170.306Z" fill="url(#paint0_linear_1299_3567)"/>
<path d="M507.712 131.56C510.89 131.56 513.466 128.984 513.466 125.806C513.466 122.628 510.89 120.052 507.712 120.052C504.535 120.052 501.958 122.628 501.958 125.806C501.958 128.984 504.535 131.56 507.712 131.56Z" fill="white"/>
<path d="M507.712 130.514C510.312 130.514 512.42 128.406 512.42 125.806C512.42 123.206 510.312 121.098 507.712 121.098C505.112 121.098 503.005 123.206 503.005 125.806C503.005 128.406 505.112 130.514 507.712 130.514Z" stroke="#3384FB" stroke-width="2"/>
<path d="M281.241 104V101.536C279.172 101.302 277.486 100.576 276.185 99.3603C274.884 98.1443 274.212 96.5123 274.169 94.4643H278.489C278.532 95.3176 278.788 96.0643 279.257 96.7043C279.748 97.3443 280.409 97.7816 281.241 98.0163V91.2643C281.049 91.2003 280.846 91.1363 280.633 91.0723C280.441 91.0083 280.238 90.9443 280.025 90.8803C278.297 90.283 276.974 89.515 276.057 88.5763C275.161 87.6376 274.713 86.3896 274.713 84.8323C274.692 82.9976 275.289 81.5256 276.505 80.4163C277.721 79.2856 279.3 78.635 281.241 78.4643V75.8723H283.385V78.4963C285.305 78.6883 286.852 79.3603 288.025 80.5123C289.22 81.643 289.849 83.1043 289.913 84.8963H285.529C285.508 84.2776 285.305 83.7123 284.921 83.2003C284.558 82.667 284.046 82.2936 283.385 82.0803V88.0323C283.556 88.0963 283.726 88.1603 283.897 88.2243C284.068 88.267 284.238 88.3203 284.409 88.3843C285.518 88.7683 286.532 89.2163 287.449 89.7283C288.366 90.2403 289.102 90.923 289.657 91.7763C290.212 92.6083 290.489 93.6856 290.489 95.0083C290.489 96.1176 290.212 97.1523 289.657 98.1123C289.124 99.0723 288.324 99.8723 287.257 100.512C286.212 101.131 284.921 101.483 283.385 101.568V104H281.241ZM279.001 84.5443C279.001 85.227 279.204 85.7816 279.609 86.2083C280.014 86.6136 280.558 86.9656 281.241 87.2643V81.9523C280.58 82.0803 280.036 82.3683 279.609 82.8163C279.204 83.2643 279.001 83.8403 279.001 84.5443ZM286.137 95.2963C286.137 94.443 285.881 93.771 285.369 93.2803C284.857 92.7896 284.196 92.3736 283.385 92.0323V98.1123C284.238 97.9843 284.91 97.675 285.401 97.1843C285.892 96.6936 286.137 96.0643 286.137 95.2963ZM301.391 101.6C299.919 101.6 298.585 101.344 297.391 100.832C296.196 100.299 295.236 99.4883 294.511 98.4003C293.785 97.3123 293.401 95.947 293.359 94.3043H297.391C297.412 95.3923 297.764 96.3096 298.447 97.0563C299.151 97.7816 300.132 98.1443 301.391 98.1443C302.585 98.1443 303.503 97.8136 304.143 97.1523C304.783 96.491 305.103 95.659 305.103 94.6563C305.103 93.483 304.676 92.5976 303.823 92.0003C302.991 91.3816 301.913 91.0723 300.591 91.0723H298.927V87.7123H300.623C301.711 87.7123 302.617 87.4563 303.343 86.9443C304.068 86.4323 304.431 85.675 304.431 84.6723C304.431 83.8403 304.153 83.179 303.599 82.6883C303.065 82.1763 302.319 81.9203 301.359 81.9203C300.313 81.9203 299.492 82.2296 298.895 82.8483C298.319 83.467 297.999 84.2243 297.935 85.1203H293.935C294.02 83.051 294.735 81.419 296.079 80.2243C297.444 79.0296 299.204 78.4323 301.359 78.4323C302.895 78.4323 304.185 78.7096 305.231 79.2643C306.297 79.7976 307.097 80.5123 307.631 81.4083C308.185 82.3043 308.463 83.2963 308.463 84.3843C308.463 85.643 308.111 86.7096 307.407 87.5843C306.724 88.4376 305.871 89.0136 304.847 89.3123C306.105 89.5683 307.129 90.187 307.919 91.1683C308.708 92.1283 309.103 93.3443 309.103 94.8163C309.103 96.0536 308.804 97.1843 308.207 98.2083C307.609 99.2323 306.735 100.054 305.583 100.672C304.452 101.291 303.055 101.6 301.391 101.6ZM323.365 101.216V97.0563H312.325V93.7923L322.821 78.8163H327.461V93.5043H330.405V97.0563H327.461V101.216H323.365ZM316.709 93.5043H323.621V83.3283L316.709 93.5043ZM341.657 101.6C340.015 101.6 338.596 101.312 337.401 100.736C336.228 100.16 335.3 99.371 334.617 98.3683C333.956 97.3443 333.572 96.1923 333.465 94.9123H337.465C337.657 95.8296 338.127 96.5976 338.873 97.2163C339.62 97.8136 340.548 98.1123 341.657 98.1123C342.852 98.1123 343.823 97.675 344.569 96.8003C345.337 95.9256 345.721 94.8376 345.721 93.5363C345.721 92.1923 345.337 91.1256 344.569 90.3363C343.823 89.547 342.873 89.1523 341.721 89.1523C340.761 89.1523 339.929 89.387 339.225 89.8563C338.521 90.3256 338.02 90.9123 337.721 91.6163H333.785L335.705 78.8163H348.121V82.4003H338.777L337.753 87.5843C338.223 87.0723 338.863 86.6563 339.673 86.3363C340.484 85.995 341.391 85.8243 342.393 85.8243C343.993 85.8243 345.327 86.187 346.393 86.9123C347.46 87.6163 348.271 88.555 348.825 89.7283C349.38 90.8803 349.657 92.139 349.657 93.5043C349.657 95.0616 349.316 96.4483 348.633 97.6643C347.972 98.8803 347.033 99.8403 345.817 100.544C344.623 101.248 343.236 101.6 341.657 101.6ZM351.741 104.928L353.565 96.9603H357.533L354.429 104.928H351.741ZM368.907 101.6C367.265 101.6 365.846 101.312 364.651 100.736C363.478 100.16 362.55 99.371 361.867 98.3683C361.206 97.3443 360.822 96.1923 360.715 94.9123H364.715C364.907 95.8296 365.377 96.5976 366.123 97.2163C366.87 97.8136 367.798 98.1123 368.907 98.1123C370.102 98.1123 371.073 97.675 371.819 96.8003C372.587 95.9256 372.971 94.8376 372.971 93.5363C372.971 92.1923 372.587 91.1256 371.819 90.3363C371.073 89.547 370.123 89.1523 368.971 89.1523C368.011 89.1523 367.179 89.387 366.475 89.8563C365.771 90.3256 365.27 90.9123 364.971 91.6163H361.035L362.955 78.8163H375.371V82.4003H366.027L365.003 87.5843C365.473 87.0723 366.113 86.6563 366.923 86.3363C367.734 85.995 368.641 85.8243 369.643 85.8243C371.243 85.8243 372.577 86.187 373.643 86.9123C374.71 87.6163 375.521 88.555 376.075 89.7283C376.63 90.8803 376.907 92.139 376.907 93.5043C376.907 95.0616 376.566 96.4483 375.883 97.6643C375.222 98.8803 374.283 99.8403 373.067 100.544C371.873 101.248 370.486 101.6 368.907 101.6ZM389.903 101.6C387.834 101.6 386.063 101.12 384.591 100.16C383.119 99.179 381.978 97.8243 381.167 96.0963C380.378 94.347 379.983 92.3203 379.983 90.0163C379.983 87.7336 380.378 85.7176 381.167 83.9683C381.978 82.219 383.119 80.8643 384.591 79.9043C386.063 78.923 387.834 78.4323 389.903 78.4323C391.972 78.4323 393.743 78.923 395.215 79.9043C396.687 80.8643 397.818 82.219 398.607 83.9683C399.418 85.7176 399.823 87.7336 399.823 90.0163C399.823 92.3203 399.418 94.347 398.607 96.0963C397.818 97.8243 396.687 99.179 395.215 100.16C393.743 101.12 391.972 101.6 389.903 101.6ZM389.903 97.9203C391.588 97.9203 392.964 97.2163 394.031 95.8083C395.098 94.4003 395.631 92.4696 395.631 90.0163C395.631 87.563 395.098 85.6323 394.031 84.2243C392.964 82.8163 391.588 82.1123 389.903 82.1123C388.196 82.1123 386.81 82.8163 385.743 84.2243C384.698 85.6323 384.175 87.563 384.175 90.0163C384.175 92.4696 384.698 94.4003 385.743 95.8083C386.81 97.2163 388.196 97.9203 389.903 97.9203ZM412.622 101.6C410.552 101.6 408.782 101.12 407.31 100.16C405.838 99.179 404.696 97.8243 403.886 96.0963C403.096 94.347 402.702 92.3203 402.702 90.0163C402.702 87.7336 403.096 85.7176 403.886 83.9683C404.696 82.219 405.838 80.8643 407.31 79.9043C408.782 78.923 410.552 78.4323 412.622 78.4323C414.691 78.4323 416.462 78.923 417.934 79.9043C419.406 80.8643 420.536 82.219 421.326 83.9683C422.136 85.7176 422.542 87.7336 422.542 90.0163C422.542 92.3203 422.136 94.347 421.326 96.0963C420.536 97.8243 419.406 99.179 417.934 100.16C416.462 101.12 414.691 101.6 412.622 101.6ZM412.622 97.9203C414.307 97.9203 415.683 97.2163 416.75 95.8083C417.816 94.4003 418.35 92.4696 418.35 90.0163C418.35 87.563 417.816 85.6323 416.75 84.2243C415.683 82.8163 414.307 82.1123 412.622 82.1123C410.915 82.1123 409.528 82.8163 408.462 84.2243C407.416 85.6323 406.894 87.563 406.894 90.0163C406.894 92.4696 407.416 94.4003 408.462 95.8083C409.528 97.2163 410.915 97.9203 412.622 97.9203Z" fill="#3384FB"/>
<rect x="443.66" y="41.4148" width="57.5703" height="27.5" rx="13.75" fill="#091832"/>
<path d="M470.099 59.1648V57.6048H465.959V56.3808L469.895 50.7648H471.635V56.2728H472.739V57.6048H471.635V59.1648H470.099ZM467.603 56.2728H470.195V52.4568L467.603 56.2728ZM476.958 59.3088C476.342 59.3088 475.81 59.2008 475.362 58.9848C474.922 58.7688 474.574 58.4728 474.318 58.0968C474.07 57.7128 473.926 57.2808 473.886 56.8008H475.386C475.458 57.1448 475.634 57.4328 475.914 57.6648C476.194 57.8888 476.542 58.0008 476.958 58.0008C477.406 58.0008 477.77 57.8368 478.05 57.5088C478.338 57.1808 478.482 56.7728 478.482 56.2848C478.482 55.7808 478.338 55.3808 478.05 55.0848C477.77 54.7888 477.414 54.6408 476.982 54.6408C476.622 54.6408 476.31 54.7288 476.046 54.9048C475.782 55.0808 475.594 55.3008 475.482 55.5648H474.006L474.726 50.7648H479.382V52.1088H475.878L475.494 54.0528C475.67 53.8608 475.91 53.7048 476.214 53.5848C476.518 53.4568 476.858 53.3928 477.234 53.3928C477.834 53.3928 478.334 53.5288 478.734 53.8008C479.134 54.0648 479.438 54.4168 479.646 54.8568C479.854 55.2888 479.958 55.7608 479.958 56.2728C479.958 56.8568 479.83 57.3768 479.574 57.8328C479.326 58.2888 478.974 58.6488 478.518 58.9128C478.07 59.1768 477.55 59.3088 476.958 59.3088ZM483.116 54.8928C482.732 54.8928 482.384 54.8088 482.072 54.6408C481.76 54.4648 481.512 54.2168 481.328 53.8968C481.144 53.5768 481.052 53.1968 481.052 52.7568C481.052 52.3168 481.144 51.9368 481.328 51.6168C481.512 51.2968 481.76 51.0528 482.072 50.8848C482.384 50.7088 482.736 50.6208 483.128 50.6208C483.512 50.6208 483.856 50.7088 484.16 50.8848C484.472 51.0528 484.72 51.2968 484.904 51.6168C485.088 51.9368 485.18 52.3168 485.18 52.7568C485.18 53.1968 485.088 53.5768 484.904 53.8968C484.72 54.2168 484.472 54.4648 484.16 54.6408C483.848 54.8088 483.5 54.8928 483.116 54.8928ZM482.66 59.1648L487.4 50.7648H488.9L484.16 59.1648H482.66ZM483.116 53.8248C483.348 53.8248 483.548 53.7368 483.716 53.5608C483.884 53.3768 483.968 53.1088 483.968 52.7568C483.968 52.4048 483.884 52.1368 483.716 51.9528C483.556 51.7688 483.356 51.6768 483.116 51.6768C482.876 51.6768 482.672 51.7688 482.504 51.9528C482.344 52.1368 482.264 52.4048 482.264 52.7568C482.264 53.1088 482.344 53.3768 482.504 53.5608C482.672 53.7368 482.876 53.8248 483.116 53.8248ZM488.492 59.3088C488.108 59.3088 487.76 59.2248 487.448 59.0568C487.136 58.8808 486.888 58.6328 486.704 58.3128C486.52 57.9928 486.428 57.6128 486.428 57.1728C486.428 56.7328 486.52 56.3568 486.704 56.0448C486.888 55.7248 487.136 55.4808 487.448 55.3128C487.76 55.1368 488.112 55.0488 488.504 55.0488C488.888 55.0488 489.232 55.1368 489.536 55.3128C489.848 55.4808 490.096 55.7248 490.28 56.0448C490.464 56.3568 490.556 56.7328 490.556 57.1728C490.556 57.6128 490.464 57.9928 490.28 58.3128C490.096 58.6328 489.848 58.8808 489.536 59.0568C489.232 59.2248 488.884 59.3088 488.492 59.3088ZM488.492 58.2408C488.732 58.2408 488.932 58.1528 489.092 57.9768C489.26 57.7928 489.344 57.5248 489.344 57.1728C489.344 56.8208 489.26 56.5528 489.092 56.3688C488.932 56.1848 488.732 56.0928 488.492 56.0928C488.252 56.0928 488.048 56.1848 487.88 56.3688C487.72 56.5528 487.64 56.8208 487.64 57.1728C487.64 57.5248 487.72 57.7928 487.88 57.9768C488.048 58.1528 488.252 58.2408 488.492 58.2408Z" fill="white"/>
<path d="M457.492 58.3837L461.978 53.7177V56.3987C461.978 56.5976 462.057 56.7884 462.197 56.929C462.338 57.0697 462.529 57.1487 462.728 57.1487C462.926 57.1487 463.117 57.0697 463.258 56.929C463.398 56.7884 463.478 56.5976 463.478 56.3987V51.9157C463.478 51.8175 463.458 51.7202 463.421 51.6295C463.383 51.5387 463.328 51.4563 463.259 51.3868C463.189 51.3174 463.107 51.2624 463.016 51.225C462.925 51.1876 462.828 51.1684 462.73 51.1687H458.24C458.041 51.1687 457.85 51.2477 457.709 51.3884C457.569 51.529 457.49 51.7198 457.49 51.9187C457.49 52.1176 457.569 52.3084 457.709 52.449C457.85 52.5897 458.041 52.6687 458.24 52.6687H460.921L456.435 57.3287C456.308 57.4714 456.241 57.6571 456.246 57.8478C456.252 58.0385 456.331 58.2197 456.466 58.3545C456.601 58.4892 456.782 58.5673 456.973 58.5728C457.163 58.5782 457.349 58.5106 457.492 58.3837Z" fill="white"/>
<defs>
<filter id="filter0_d_1299_3567" x="0.828125" y="89.2441" width="490.914" height="365.874" filterUnits="userSpaceOnUse" color-interpolation-filters="sRGB">
<feFlood flood-opacity="0" result="BackgroundImageFix"/>
<feColorMatrix in="SourceAlpha" type="matrix" values="0 0 0 0 0 0 0 0 0 0 0 0 0 0 0 0 0 0 127 0" result="hardAlpha"/>
<feOffset dy="3"/>
<feGaussianBlur stdDeviation="11.5"/>
<feColorMatrix type="matrix" values="0 0 0 0 0 0 0 0 0 0 0 0 0 0 0 0 0 0 0.161 0"/>
<feBlend mode="normal" in2="BackgroundImageFix" result="effect1_dropShadow_1299_3567"/>
<feBlend mode="normal" in="SourceGraphic" in2="effect1_dropShadow_1299_3567" result="shape"/>
</filter>
<filter id="filter1_d_1299_3567" x="227.793" y="0.645996" width="320.461" height="234.081" filterUnits="userSpaceOnUse" color-interpolation-filters="sRGB">
<feFlood flood-opacity="0" result="BackgroundImageFix"/>
<feColorMatrix in="SourceAlpha" type="matrix" values="0 0 0 0 0 0 0 0 0 0 0 0 0 0 0 0 0 0 127 0" result="hardAlpha"/>
<feOffset dy="3"/>
<feGaussianBlur stdDeviation="11.5"/>
<feColorMatrix type="matrix" values="0 0 0 0 0 0 0 0 0 0 0 0 0 0 0 0 0 0 0.161 0"/>
<feBlend mode="normal" in2="BackgroundImageFix" result="effect1_dropShadow_1299_3567"/>
<feBlend mode="normal" in="SourceGraphic" in2="effect1_dropShadow_1299_3567" result="shape"/>
</filter>
<linearGradient id="paint0_linear_1299_3567" x1="382.878" y1="54.8568" x2="383.356" y2="183.883" gradientUnits="userSpaceOnUse">
<stop stop-color="#3384FB"/>
<stop offset="1" stop-color="#3384FB" stop-opacity="0"/>
</linearGradient>
</defs>
</svg>
