<svg width="75" height="27" viewBox="0 0 75 27" fill="none" xmlns="http://www.w3.org/2000/svg">
<path d="M24.4985 21.6702H18.9255V16.7392L24.4985 12.8052V21.6702ZM18.9255 21.6702H24.4985V24.6772H18.9255V21.6702ZM16.6685 24.6772H7.6845L16.6685 18.3342V24.6772ZM26.7605 26.9372V8.44421L0.5625 26.9362L26.7605 26.9372Z" fill="white"/>
<path d="M50.8645 12.8062L56.4375 16.7402V21.6702H50.8645V12.8062ZM50.8645 21.6712H56.4375V24.6772H50.8645V21.6712ZM58.6975 18.3342L67.6855 24.6772H58.6975V18.3342ZM74.7975 26.9342L48.6045 8.44421V26.9342H74.7975Z" fill="white"/>
<path d="M43.8194 24.6792H38.8034V3.79823L43.8194 7.58023V24.6792ZM31.5284 7.57923L36.5444 3.79723V24.6762H31.5284V7.57923ZM37.6734 0.115234L29.2734 6.45323V26.9352H46.0834V6.45723L37.6734 0.115234Z" fill="white"/>
</svg>
