<svg width="19" height="19" viewBox="0 0 19 19" fill="none" xmlns="http://www.w3.org/2000/svg">
<path d="M17.1384 0.116211H1.58839C1.24378 0.11859 0.914214 0.257703 0.672132 0.502973C0.430049 0.748244 0.295259 1.0796 0.297388 1.42421V16.9452C0.295259 17.2898 0.430049 17.6212 0.672132 17.8664C0.914214 18.1117 1.24378 18.2508 1.58839 18.2532H17.1384C17.3098 18.2532 17.4795 18.2193 17.6377 18.1535C17.796 18.0877 17.9396 17.9912 18.0605 17.8696C18.1813 17.7481 18.2769 17.6038 18.3417 17.4452C18.4066 17.2865 18.4394 17.1166 18.4384 16.9452V1.42421C18.4394 1.25282 18.4066 1.08291 18.3417 0.924265C18.2769 0.765618 18.1813 0.621361 18.0605 0.499796C17.9396 0.378231 17.796 0.281758 17.6377 0.215927C17.4795 0.150097 17.3098 0.116208 17.1384 0.116211ZM5.77939 15.6662H3.09039V7.00621H5.78339V15.6662H5.77939ZM4.43439 5.82421C4.12618 5.82342 3.82511 5.73129 3.56924 5.55946C3.31337 5.38763 3.11417 5.14381 2.99682 4.85882C2.87947 4.57382 2.84922 4.26043 2.90991 3.95825C2.97059 3.65607 3.11949 3.37866 3.33778 3.16107C3.55606 2.94348 3.83395 2.79548 4.13632 2.73576C4.4387 2.67604 4.75199 2.70729 5.0366 2.82556C5.32122 2.94382 5.5644 3.1438 5.73541 3.40022C5.90642 3.65664 5.99758 3.958 5.99739 4.26621C5.99726 4.47119 5.9567 4.67414 5.87805 4.86343C5.79939 5.05272 5.68418 5.22465 5.539 5.36936C5.39382 5.51407 5.22153 5.62874 5.03199 5.70678C4.84245 5.78483 4.63937 5.82474 4.43439 5.82421ZM15.8554 15.6662H13.1674V11.4562C13.1674 10.4562 13.1474 9.15621 11.7674 9.15621C10.3674 9.15621 10.1524 10.2492 10.1524 11.3792V15.6662H7.46739V7.00621H10.0464V8.18821H10.0824C10.3407 7.74658 10.7138 7.38319 11.1621 7.13667C11.6104 6.89016 12.1171 6.76974 12.6284 6.78821C15.3494 6.78821 15.8554 8.58121 15.8554 10.9132V15.6662Z" fill="white"/>
</svg>
