<svg width="19" height="19" viewBox="0 0 19 19" fill="none" xmlns="http://www.w3.org/2000/svg">
<path d="M16.7565 0.116211H2.5055C1.99018 0.116211 1.49597 0.320919 1.13159 0.685302C0.767208 1.04969 0.5625 1.5439 0.5625 2.05921V16.3092C0.5625 16.8245 0.767208 17.3187 1.13159 17.6831C1.49597 18.0475 1.99018 18.2522 2.5055 18.2522H8.0625V12.0872H5.5115V9.18721H8.0625V6.97221C8.0076 6.45564 8.06701 5.93331 8.2365 5.44225C8.406 4.9512 8.68143 4.50344 9.04328 4.13071C9.40514 3.75798 9.84454 3.4694 10.3304 3.28544C10.8162 3.10148 11.3365 3.02664 11.8545 3.06621C12.6077 3.07799 13.359 3.14483 14.1025 3.26621V5.73621H12.8365C12.6208 5.7076 12.4014 5.72787 12.1946 5.79552C11.9877 5.86318 11.7988 5.97649 11.6417 6.12706C11.4846 6.27763 11.3634 6.46161 11.287 6.66538C11.2106 6.86914 11.1811 7.08747 11.2005 7.30421V9.18921H13.9855L13.5405 12.0892H11.1995V18.2552H16.7555C17.0107 18.2552 17.2633 18.205 17.4991 18.1073C17.7348 18.0097 17.949 17.8665 18.1294 17.6861C18.3098 17.5057 18.453 17.2915 18.5506 17.0558C18.6482 16.82 18.6985 16.5674 18.6985 16.3122V2.05921C18.6985 1.54407 18.4939 1.05001 18.1298 0.685656C17.7656 0.321301 17.2716 0.116476 16.7565 0.116211Z" fill="white"/>
</svg>
