<svg width="22" height="18" viewBox="0 0 22 18" fill="none" xmlns="http://www.w3.org/2000/svg">
<path d="M19.5263 4.96241C19.5393 5.14641 19.5393 5.33041 19.5393 5.51441C19.551 7.10526 19.2462 8.68257 18.6428 10.1546C18.0393 11.6266 17.1492 12.9639 16.0242 14.0887C14.8991 15.2136 13.5617 16.1035 12.0896 16.7067C10.6175 17.3099 9.04012 17.6144 7.44927 17.6024C5.1366 17.6086 2.87141 16.9464 0.92627 15.6954C1.26694 15.7331 1.60953 15.7508 1.95227 15.7484C3.86439 15.7529 5.72229 15.1132 7.22627 13.9324C6.33984 13.9162 5.48058 13.6237 4.76849 13.0955C4.05639 12.5673 3.52701 11.83 3.25427 10.9864C3.51891 11.0284 3.78633 11.0504 4.05427 11.0524C4.43155 11.0512 4.80717 11.0025 5.17227 10.9074C4.21081 10.7123 3.34649 10.1905 2.72602 9.4306C2.10554 8.67068 1.76715 7.71946 1.76827 6.73841V6.68641C2.35687 7.01482 3.01474 7.1995 3.68827 7.22541C2.78665 6.62393 2.14854 5.70106 1.90417 4.64514C1.65979 3.58922 1.82757 2.47984 2.37327 1.54341C3.4405 2.85631 4.77172 3.93027 6.28064 4.69567C7.78956 5.46107 9.44249 5.90082 11.1323 5.98641C11.0642 5.6665 11.029 5.34047 11.0273 5.01341C11.0279 4.16129 11.2846 3.32902 11.764 2.62453C12.2434 1.92005 12.9234 1.37586 13.7158 1.06253C14.5082 0.749202 15.3765 0.681196 16.2081 0.867331C17.0396 1.05347 17.796 1.48515 18.3793 2.10641C19.332 1.92357 20.2456 1.5764 21.0793 1.08041C20.7624 2.06213 20.0982 2.8945 19.2113 3.42141C20.0548 3.32524 20.8793 3.10345 21.6573 2.76341C21.0759 3.61149 20.3554 4.35528 19.5263 4.96341V4.96241Z" fill="white"/>
</svg>
