<svg width="71" height="49" viewBox="0 0 71 49" fill="none" xmlns="http://www.w3.org/2000/svg">
<path d="M23.1318 21.2648H17.877V16.6157L23.1318 12.9065V21.2648ZM17.877 21.2648H23.1318V24.0962H17.877V21.2648ZM15.7472 24.1002H7.27637L15.7472 18.1226V24.1002ZM25.264 26.23V8.79297L0.567383 26.23H25.264Z" fill="#001931"/>
<path d="M47.9935 12.9062L53.2482 16.6154V21.2645H47.9935V12.9062ZM47.9935 21.2653H53.2482V24.0967H47.9935V21.2653ZM55.3789 18.1192L63.8496 24.0967H55.3789V18.1192ZM70.5626 26.2305L45.8628 8.79346V26.2305H70.5626Z" fill="#001931"/>
<path d="M0.5625 34.1533H4.73104V48.3452H7.3761V34.1533H11.6603V31.5728H0.5625V34.1533Z" fill="#001931"/>
<path d="M17.4075 34.1533H19.8685C20.3629 34.136 20.8544 34.2346 21.3039 34.4412C21.6603 34.6143 21.9691 34.8715 22.2037 35.1908C22.4147 35.4794 22.5729 35.8033 22.6709 36.1472C22.7569 36.4428 22.8029 36.7486 22.8077 37.0564C22.8039 37.3728 22.7541 37.6871 22.6599 37.9892C22.5565 38.3281 22.3903 38.6446 22.1699 38.922C21.9195 39.2314 21.5989 39.4765 21.2347 39.6369C20.7745 39.8328 20.2771 39.9259 19.7773 39.9099H17.4075V34.1533ZM24.2777 40.742C24.7197 40.2156 25.0492 39.6042 25.2459 38.9456C25.4407 38.3031 25.5406 37.6357 25.5424 36.9644C25.5589 36.1748 25.4116 35.3904 25.1099 34.6606C24.8317 34.014 24.4061 33.4413 23.8672 32.9885C23.2951 32.5181 22.6376 32.1627 21.9308 31.9417C21.1239 31.6877 20.2818 31.5632 19.4359 31.5728H14.7412V48.3445H17.4075V42.5164H19.819C19.8976 42.5164 19.9763 42.5164 20.0494 42.5124L23.7838 48.3453H26.8827L22.8478 41.8691C23.3949 41.5925 23.881 41.2093 24.2777 40.742Z" fill="#001931"/>
<path d="M39.5554 42.192C39.5618 42.825 39.3845 43.4463 39.045 43.9805C38.6988 44.5236 38.2245 44.9732 37.6639 45.2901C37.0671 45.6293 36.3902 45.8023 35.7039 45.7911C35.0407 45.7997 34.3878 45.6265 33.8162 45.2901C33.2661 44.9678 32.8012 44.5185 32.4603 43.9798C32.1199 43.4457 31.9418 42.8245 31.9475 42.1912V31.5732H29.2812V42.2376C29.2568 43.3658 29.5571 44.4772 30.1463 45.4395C30.7138 46.3499 31.5169 47.0899 32.4705 47.5812C33.4703 48.0966 34.5814 48.3586 35.7062 48.3441C36.8344 48.3576 37.9489 48.0958 38.953 47.5812C39.9106 47.0918 40.7172 46.3512 41.2866 45.4387C41.8757 44.4764 42.176 43.365 42.1517 42.2368V31.5732H39.5562L39.5554 42.192Z" fill="#001931"/>
<path d="M55.0689 40.2882C54.6639 39.9317 54.2161 39.6271 53.7357 39.3814C53.2562 39.1351 52.7615 38.9194 52.2547 38.7356C51.6779 38.5091 51.131 38.2711 50.614 38.0215C50.1431 37.804 49.7148 37.5041 49.3493 37.1359C49.1926 36.9801 49.0686 36.7946 48.9844 36.5902C48.9003 36.3859 48.8578 36.1668 48.8593 35.9459C48.8479 35.6581 48.9063 35.3719 49.0295 35.1117C49.1528 34.8514 49.3373 34.6249 49.5672 34.4515C50.1345 34.0615 50.8155 33.8714 51.5028 33.9111C52.1543 33.9187 52.8005 34.0297 53.4172 34.2399C54.0686 34.4526 54.7002 34.7218 55.3048 35.0445L56.3273 33.0271C55.631 32.5978 54.8872 32.2507 54.1109 31.9928C53.1411 31.6926 52.1292 31.551 51.1142 31.5736C50.2082 31.5878 49.3167 31.8047 48.5054 32.2083C47.7786 32.5647 47.1667 33.1182 46.7396 33.8058C46.3178 34.5223 46.1047 35.3426 46.1246 36.174C46.1046 36.8253 46.2456 37.4715 46.5351 38.0553C46.8045 38.5648 47.1816 39.0095 47.6402 39.3586C48.1078 39.7167 48.6166 40.0175 49.1558 40.2544C49.7027 40.4961 50.2271 40.7153 50.7289 40.9119C51.2206 41.0968 51.6969 41.3203 52.1532 41.5805C52.5542 41.8048 52.9128 42.0976 53.2127 42.4456C53.4876 42.7784 53.6329 43.1994 53.6217 43.6309C53.6491 44.1395 53.4871 44.6402 53.1671 45.0364C52.852 45.3912 52.4464 45.6536 51.9936 45.7954C51.5421 45.9489 51.0688 46.0285 50.592 46.0314C50.1102 46.0279 49.6311 45.9594 49.1676 45.8277C48.6698 45.6905 48.1855 45.5086 47.7204 45.2842C47.2795 45.0762 46.8597 44.8263 46.4667 44.5378L45.2822 46.5741C45.7932 46.9439 46.3431 47.2566 46.9221 47.5069C47.5284 47.7686 48.1577 47.9734 48.8019 48.1188C49.471 48.2707 50.1552 48.3467 50.8413 48.3453C51.875 48.3731 52.9001 48.1516 53.8301 47.6996C54.608 47.3189 55.2654 46.7304 55.7295 45.9991C56.1653 45.2869 56.3905 44.4658 56.3792 43.6309C56.3961 42.953 56.2759 42.2786 56.026 41.6481C55.813 41.1288 55.4859 40.664 55.0689 40.2882Z" fill="#001931"/>
<path d="M70.1596 41.647C69.9466 41.1277 69.6194 40.6629 69.2025 40.2871C68.7974 39.9309 68.3496 39.6266 67.8693 39.3811C67.3905 39.1349 66.8967 38.9192 66.3907 38.7353C65.8139 38.5088 65.267 38.2708 64.75 38.0212C64.2775 37.8046 63.8476 37.5052 63.4805 37.1371C63.3239 36.9813 63.1999 36.7958 63.1157 36.5915C63.0316 36.3871 62.989 36.1681 62.9905 35.9471C62.9792 35.6594 63.0376 35.3732 63.1609 35.113C63.2841 34.8527 63.4686 34.6262 63.6984 34.4528C64.2657 34.0611 64.9473 33.8696 65.6356 33.9085C66.2871 33.9161 66.9333 34.027 67.55 34.2373C68.2014 34.4499 68.8331 34.7192 69.4376 35.0419L70.4601 33.0244C69.762 32.5957 69.0163 32.2497 68.2382 31.9933C67.2684 31.6931 66.2565 31.5515 65.2416 31.5741C64.3355 31.5883 63.444 31.8052 62.6327 32.2088C61.906 32.5652 61.2941 33.1187 60.8669 33.8062C60.4468 34.5228 60.2352 35.3425 60.2558 36.1729C60.2358 36.8242 60.3768 37.4704 60.6664 38.0542C60.9347 38.5633 61.3104 39.0079 61.7675 39.3575C62.2352 39.7153 62.744 40.0158 63.2831 40.2525C63.83 40.4943 64.3544 40.7134 64.8562 40.9101C65.3479 41.095 65.8241 41.3185 66.2805 41.5786C66.6814 41.803 67.04 42.0958 67.34 42.4438C67.6163 42.7777 67.7619 43.2005 67.7498 43.6338C67.7769 44.1425 67.6147 44.6432 67.2944 45.0393C66.9793 45.394 66.5736 45.6564 66.1209 45.7983C65.6694 45.9517 65.1961 46.0314 64.7193 46.0342C64.2375 46.0307 63.7584 45.9622 63.2949 45.8305C62.7971 45.6931 62.3127 45.511 61.8477 45.2862C61.407 45.0777 60.9875 44.8273 60.5948 44.5383L59.415 46.5769C59.9265 46.9455 60.4766 47.2573 61.0557 47.5066C61.662 47.7682 62.2913 47.9731 62.9355 48.1185C63.6046 48.2703 64.2888 48.3463 64.9749 48.345C66.0086 48.3727 67.0337 48.1513 67.9637 47.6993C68.7416 47.3186 69.399 46.7301 69.8631 45.9988C70.2989 45.2866 70.5241 44.4655 70.5128 43.6306C70.5298 42.9524 70.4096 42.2777 70.1596 41.647Z" fill="#001931"/>
<path d="M41.3513 24.1023H36.622V4.41575L41.3513 7.98182V24.1023ZM29.762 7.97867L34.4913 4.4126V24.0991H29.7612L29.762 7.97867ZM35.5563 0.940918L27.6313 6.91844V26.2314H43.4812V6.92002L35.5563 0.940918Z" fill="#001931"/>
</svg>
