<svg width="185" height="96" viewBox="0 0 185 96" fill="none" xmlns="http://www.w3.org/2000/svg">
<path d="M3.18825 6.1472C2.91225 6.1472 2.66225 6.0992 2.43825 6.0032C2.21425 5.9032 2.03425 5.7512 1.89825 5.5472C1.76225 5.3432 1.69025 5.0872 1.68225 4.7792H2.43825C2.44225 4.9832 2.50825 5.1552 2.63625 5.2952C2.76825 5.4312 2.95225 5.4992 3.18825 5.4992C3.41225 5.4992 3.58425 5.4372 3.70425 5.3132C3.82425 5.1892 3.88425 5.0332 3.88425 4.8452C3.88425 4.6252 3.80425 4.4592 3.64425 4.3472C3.48825 4.2312 3.28625 4.1732 3.03825 4.1732H2.72625V3.5432H3.04425C3.24825 3.5432 3.41825 3.4952 3.55425 3.3992C3.69025 3.3032 3.75825 3.1612 3.75825 2.9732C3.75825 2.8172 3.70625 2.69319 3.60225 2.60119C3.50225 2.5052 3.36225 2.4572 3.18225 2.4572C2.98625 2.4572 2.83225 2.5152 2.72025 2.6312C2.61225 2.7472 2.55225 2.8892 2.54025 3.0572H1.79025C1.80625 2.6692 1.94025 2.3632 2.19225 2.1392C2.44825 1.9152 2.77825 1.8032 3.18225 1.8032C3.47025 1.8032 3.71225 1.8552 3.90825 1.9592C4.10825 2.0592 4.25825 2.1932 4.35825 2.3612C4.46225 2.5292 4.51425 2.7152 4.51425 2.9192C4.51425 3.1552 4.44825 3.3552 4.31625 3.5192C4.18825 3.6792 4.02825 3.7872 3.83625 3.8432C4.07225 3.8912 4.26425 4.0072 4.41225 4.1912C4.56025 4.3712 4.63425 4.5992 4.63425 4.8752C4.63425 5.1072 4.57825 5.3192 4.46625 5.5112C4.35425 5.7032 4.19025 5.8572 3.97425 5.9732C3.76225 6.0892 3.50025 6.1472 3.18825 6.1472ZM7.11047 6.1472C6.72247 6.1472 6.39047 6.0572 6.11447 5.8772C5.83847 5.6932 5.62447 5.4392 5.47247 5.1152C5.32447 4.7872 5.25047 4.4072 5.25047 3.9752C5.25047 3.5472 5.32447 3.1692 5.47247 2.8412C5.62447 2.5132 5.83847 2.2592 6.11447 2.0792C6.39047 1.8952 6.72247 1.8032 7.11047 1.8032C7.49847 1.8032 7.83047 1.8952 8.10647 2.0792C8.38247 2.2592 8.59447 2.5132 8.74247 2.8412C8.89447 3.1692 8.97047 3.5472 8.97047 3.9752C8.97047 4.4072 8.89447 4.7872 8.74247 5.1152C8.59447 5.4392 8.38247 5.6932 8.10647 5.8772C7.83047 6.0572 7.49847 6.1472 7.11047 6.1472ZM7.11047 5.4572C7.42647 5.4572 7.68447 5.3252 7.88447 5.0612C8.08447 4.7972 8.18447 4.4352 8.18447 3.9752C8.18447 3.5152 8.08447 3.1532 7.88447 2.8892C7.68447 2.6252 7.42647 2.4932 7.11047 2.4932C6.79047 2.4932 6.53047 2.6252 6.33047 2.8892C6.13447 3.1532 6.03647 3.5152 6.03647 3.9752C6.03647 4.4352 6.13447 4.7972 6.33047 5.0612C6.53047 5.3252 6.79047 5.4572 7.11047 5.4572ZM11.3702 6.1472C10.9822 6.1472 10.6502 6.0572 10.3742 5.8772C10.0982 5.6932 9.88423 5.4392 9.73223 5.1152C9.58423 4.7872 9.51023 4.4072 9.51023 3.9752C9.51023 3.5472 9.58423 3.1692 9.73223 2.8412C9.88423 2.5132 10.0982 2.2592 10.3742 2.0792C10.6502 1.8952 10.9822 1.8032 11.3702 1.8032C11.7582 1.8032 12.0902 1.8952 12.3662 2.0792C12.6422 2.2592 12.8542 2.5132 13.0022 2.8412C13.1542 3.1692 13.2302 3.5472 13.2302 3.9752C13.2302 4.4072 13.1542 4.7872 13.0022 5.1152C12.8542 5.4392 12.6422 5.6932 12.3662 5.8772C12.0902 6.0572 11.7582 6.1472 11.3702 6.1472ZM11.3702 5.4572C11.6862 5.4572 11.9442 5.3252 12.1442 5.0612C12.3442 4.7972 12.4442 4.4352 12.4442 3.9752C12.4442 3.5152 12.3442 3.1532 12.1442 2.8892C11.9442 2.6252 11.6862 2.4932 11.3702 2.4932C11.0502 2.4932 10.7902 2.6252 10.5902 2.8892C10.3942 3.1532 10.2962 3.5152 10.2962 3.9752C10.2962 4.4352 10.3942 4.7972 10.5902 5.0612C10.7902 5.3252 11.0502 5.4572 11.3702 5.4572Z" fill="#001931"/>
<path d="M1.88803 35.1709V34.6129C2.14403 34.4009 2.39203 34.1909 2.63203 33.9829C2.87603 33.7749 3.09203 33.5689 3.28003 33.3649C3.47203 33.1609 3.62403 32.9629 3.73603 32.7709C3.85203 32.5749 3.91003 32.3849 3.91003 32.2009C3.91003 32.0289 3.86203 31.8769 3.76603 31.7449C3.67403 31.6129 3.52003 31.5469 3.30403 31.5469C3.08403 31.5469 2.91803 31.6189 2.80603 31.7629C2.69403 31.9069 2.63803 32.0809 2.63803 32.2849H1.89403C1.90203 31.9769 1.97003 31.7209 2.09803 31.5169C2.22603 31.3089 2.39603 31.1549 2.60803 31.0549C2.82003 30.9509 3.05803 30.8989 3.32203 30.8989C3.75003 30.8989 4.08203 31.0169 4.31803 31.2529C4.55803 31.4849 4.67803 31.7869 4.67803 32.1589C4.67803 32.3909 4.62403 32.6169 4.51603 32.8369C4.41203 33.0569 4.27403 33.2689 4.10203 33.4729C3.93003 33.6769 3.74403 33.8689 3.54403 34.0489C3.34403 34.2249 3.15003 34.3889 2.96203 34.5409H4.78003V35.1709H1.88803ZM7.11047 35.2429C6.72247 35.2429 6.39047 35.1529 6.11447 34.9729C5.83847 34.7889 5.62447 34.5349 5.47247 34.2109C5.32447 33.8829 5.25047 33.5029 5.25047 33.0709C5.25047 32.6429 5.32447 32.2649 5.47247 31.9369C5.62447 31.6089 5.83847 31.3549 6.11447 31.1749C6.39047 30.9909 6.72247 30.8989 7.11047 30.8989C7.49847 30.8989 7.83047 30.9909 8.10647 31.1749C8.38247 31.3549 8.59447 31.6089 8.74247 31.9369C8.89447 32.2649 8.97047 32.6429 8.97047 33.0709C8.97047 33.5029 8.89447 33.8829 8.74247 34.2109C8.59447 34.5349 8.38247 34.7889 8.10647 34.9729C7.83047 35.1529 7.49847 35.2429 7.11047 35.2429ZM7.11047 34.5529C7.42647 34.5529 7.68447 34.4209 7.88447 34.1569C8.08447 33.8929 8.18447 33.5309 8.18447 33.0709C8.18447 32.6109 8.08447 32.2489 7.88447 31.9849C7.68447 31.7209 7.42647 31.5889 7.11047 31.5889C6.79047 31.5889 6.53047 31.7209 6.33047 31.9849C6.13447 32.2489 6.03647 32.6109 6.03647 33.0709C6.03647 33.5309 6.13447 33.8929 6.33047 34.1569C6.53047 34.4209 6.79047 34.5529 7.11047 34.5529ZM11.3702 35.2429C10.9822 35.2429 10.6502 35.1529 10.3742 34.9729C10.0982 34.7889 9.88423 34.5349 9.73223 34.2109C9.58423 33.8829 9.51023 33.5029 9.51023 33.0709C9.51023 32.6429 9.58423 32.2649 9.73223 31.9369C9.88423 31.6089 10.0982 31.3549 10.3742 31.1749C10.6502 30.9909 10.9822 30.8989 11.3702 30.8989C11.7582 30.8989 12.0902 30.9909 12.3662 31.1749C12.6422 31.3549 12.8542 31.6089 13.0022 31.9369C13.1542 32.2649 13.2302 32.6429 13.2302 33.0709C13.2302 33.5029 13.1542 33.8829 13.0022 34.2109C12.8542 34.5349 12.6422 34.7889 12.3662 34.9729C12.0902 35.1529 11.7582 35.2429 11.3702 35.2429ZM11.3702 34.5529C11.6862 34.5529 11.9442 34.4209 12.1442 34.1569C12.3442 33.8929 12.4442 33.5309 12.4442 33.0709C12.4442 32.6109 12.3442 32.2489 12.1442 31.9849C11.9442 31.7209 11.6862 31.5889 11.3702 31.5889C11.0502 31.5889 10.7902 31.7209 10.5902 31.9849C10.3942 32.2489 10.2962 32.6109 10.2962 33.0709C10.2962 33.5309 10.3942 33.8929 10.5902 34.1569C10.7902 34.4209 11.0502 34.5529 11.3702 34.5529Z" fill="#001931"/>
<path d="M3.77611 64.2666V60.9426L3.08611 61.1046V60.5166L4.10011 60.0666H4.57411V64.2666H3.77611ZM7.11047 64.3386C6.72247 64.3386 6.39047 64.2486 6.11447 64.0686C5.83847 63.8846 5.62447 63.6306 5.47247 63.3066C5.32447 62.9786 5.25047 62.5986 5.25047 62.1666C5.25047 61.7386 5.32447 61.3606 5.47247 61.0326C5.62447 60.7046 5.83847 60.4506 6.11447 60.2706C6.39047 60.0866 6.72247 59.9946 7.11047 59.9946C7.49847 59.9946 7.83047 60.0866 8.10647 60.2706C8.38247 60.4506 8.59447 60.7046 8.74247 61.0326C8.89447 61.3606 8.97047 61.7386 8.97047 62.1666C8.97047 62.5986 8.89447 62.9786 8.74247 63.3066C8.59447 63.6306 8.38247 63.8846 8.10647 64.0686C7.83047 64.2486 7.49847 64.3386 7.11047 64.3386ZM7.11047 63.6486C7.42647 63.6486 7.68447 63.5166 7.88447 63.2526C8.08447 62.9886 8.18447 62.6266 8.18447 62.1666C8.18447 61.7066 8.08447 61.3446 7.88447 61.0806C7.68447 60.8166 7.42647 60.6846 7.11047 60.6846C6.79047 60.6846 6.53047 60.8166 6.33047 61.0806C6.13447 61.3446 6.03647 61.7066 6.03647 62.1666C6.03647 62.6266 6.13447 62.9886 6.33047 63.2526C6.53047 63.5166 6.79047 63.6486 7.11047 63.6486ZM11.3702 64.3386C10.9822 64.3386 10.6502 64.2486 10.3742 64.0686C10.0982 63.8846 9.88423 63.6306 9.73223 63.3066C9.58423 62.9786 9.51023 62.5986 9.51023 62.1666C9.51023 61.7386 9.58423 61.3606 9.73223 61.0326C9.88423 60.7046 10.0982 60.4506 10.3742 60.2706C10.6502 60.0866 10.9822 59.9946 11.3702 59.9946C11.7582 59.9946 12.0902 60.0866 12.3662 60.2706C12.6422 60.4506 12.8542 60.7046 13.0022 61.0326C13.1542 61.3606 13.2302 61.7386 13.2302 62.1666C13.2302 62.5986 13.1542 62.9786 13.0022 63.3066C12.8542 63.6306 12.6422 63.8846 12.3662 64.0686C12.0902 64.2486 11.7582 64.3386 11.3702 64.3386ZM11.3702 63.6486C11.6862 63.6486 11.9442 63.5166 12.1442 63.2526C12.3442 62.9886 12.4442 62.6266 12.4442 62.1666C12.4442 61.7066 12.3442 61.3446 12.1442 61.0806C11.9442 60.8166 11.6862 60.6846 11.3702 60.6846C11.0502 60.6846 10.7902 60.8166 10.5902 61.0806C10.3942 61.3446 10.2962 61.7066 10.2962 62.1666C10.2962 62.6266 10.3942 62.9886 10.5902 63.2526C10.7902 63.5166 11.0502 63.6486 11.3702 63.6486Z" fill="#001931"/>
<path d="M11.3702 93.4338C10.9822 93.4338 10.6502 93.3438 10.3742 93.1638C10.0982 92.9798 9.88423 92.7258 9.73223 92.4018C9.58423 92.0738 9.51023 91.6938 9.51023 91.2618C9.51023 90.8338 9.58423 90.4558 9.73223 90.1278C9.88423 89.7998 10.0982 89.5458 10.3742 89.3658C10.6502 89.1818 10.9822 89.0898 11.3702 89.0898C11.7582 89.0898 12.0902 89.1818 12.3662 89.3658C12.6422 89.5458 12.8542 89.7998 13.0022 90.1278C13.1542 90.4558 13.2302 90.8338 13.2302 91.2618C13.2302 91.6938 13.1542 92.0738 13.0022 92.4018C12.8542 92.7258 12.6422 92.9798 12.3662 93.1638C12.0902 93.3438 11.7582 93.4338 11.3702 93.4338ZM11.3702 92.7438C11.6862 92.7438 11.9442 92.6118 12.1442 92.3478C12.3442 92.0838 12.4442 91.7218 12.4442 91.2618C12.4442 90.8018 12.3442 90.4398 12.1442 90.1758C11.9442 89.9118 11.6862 89.7798 11.3702 89.7798C11.0502 89.7798 10.7902 89.9118 10.5902 90.1758C10.3942 90.4398 10.2962 90.8018 10.2962 91.2618C10.2962 91.7218 10.3942 92.0838 10.5902 92.3478C10.7902 92.6118 11.0502 92.7438 11.3702 92.7438Z" fill="#001931"/>
<g opacity="0.1">
<path d="M22.5 92H183.695" stroke="black" stroke-width="0.775"/>
</g>
<g opacity="0.1">
<path d="M22.5 63H183.695" stroke="black" stroke-width="0.775"/>
</g>
<g opacity="0.1">
<path d="M22.5 34H183.695" stroke="black" stroke-width="0.775"/>
</g>
<g opacity="0.1">
<path d="M22.5 5H183.695" stroke="black" stroke-width="0.775"/>
</g>
<path d="M22.5 85.9653C27.1536 86.0418 35.2892 87.4153 43.5938 79.9776C51.8984 72.5399 46.3309 61.8162 55.7081 56.2162C65.0854 50.6162 72.3855 56.2162 84.6712 56.2162C97.0765 53.1806 100.379 25.7403 111.662 25.7403C123.832 25.7403 129.645 52.2331 144.833 52.2331C156.114 52.2331 156.11 19.1128 163.146 19.1128C170.182 19.1128 171.634 20.2603 183.695 20.2603" stroke="#3384FB" stroke-linecap="round"/>
<path d="M22.5 85.9653C27.1536 86.0418 35.2892 87.4153 43.5938 79.9776C51.8984 72.5399 46.3309 61.8162 55.7081 56.2162C65.0854 50.6162 72.3855 56.2162 84.6712 56.2162C97.0765 53.1806 100.379 25.7403 111.662 25.7403C123.832 25.7403 129.645 52.2331 144.833 52.2331C156.114 52.2331 156.11 19.1128 163.146 19.1128C170.182 19.1128 183.695 20.2603 183.695 20.2603V85.9653H22.5Z" fill="url(#paint0_linear_1502_78)"/>
<defs>
<linearGradient id="paint0_linear_1502_78" x1="85.5274" y1="-62.4262" x2="89.0758" y2="72.3543" gradientUnits="userSpaceOnUse">
<stop stop-color="#3384FB"/>
<stop offset="1" stop-color="#3384FB" stop-opacity="0"/>
</linearGradient>
</defs>
</svg>
