<svg width="141" height="96" viewBox="0 0 141 96" fill="none" xmlns="http://www.w3.org/2000/svg">
<path d="M45.7515 40.803H35.2305V31.494L45.7515 24.066V40.803ZM35.2305 40.803H45.7515V46.48H35.2305V40.803ZM30.9685 46.479H14.0035L30.9685 34.506V46.479ZM50.0175 50.746V15.833L0.5625 50.746H50.0175Z" fill="white"/>
<path d="M95.5306 24.067L106.053 31.495V40.803H95.5306V24.067ZM95.5306 40.803H106.053V46.48H95.5306V40.803ZM110.318 34.503L127.28 46.48H110.319L110.318 34.503ZM140.718 50.743L91.2646 15.833V50.746L140.718 50.743Z" fill="white"/>
<path d="M0.5625 66.6094H8.9115V95.0234H14.2045V66.6094H22.7815V61.4434H0.5625V66.6094Z" fill="white"/>
<path d="M34.2894 66.6094H39.2174C40.2073 66.5749 41.1915 66.7725 42.0914 67.1864C42.8044 67.5327 43.4222 68.0476 43.8914 68.6864C44.3138 69.2645 44.6303 69.9128 44.8264 70.6014C45.0009 71.1928 45.0955 71.8049 45.1074 72.4214C45.0985 73.0553 44.9974 73.6846 44.8074 74.2894C44.6005 74.9681 44.2677 75.6018 43.8264 76.1574C43.3257 76.7761 42.6846 77.2663 41.9564 77.5874C41.0344 77.983 40.0372 78.1724 39.0344 78.1424H34.2894V66.6094ZM48.0454 79.8014C48.9308 78.7464 49.5907 77.5212 49.9844 76.2014C50.3742 74.915 50.574 73.5785 50.5774 72.2344C50.6087 70.6541 50.3125 69.0845 49.7074 67.6244C49.1503 66.3312 48.2986 65.1861 47.2204 64.2804C46.0751 63.3371 44.7583 62.624 43.3424 62.1804C41.7252 61.6715 40.0376 61.4224 38.3424 61.4424H28.9424V95.0234H34.2894V83.3534H39.1264C39.2834 83.3534 39.4344 83.3484 39.5884 83.3444L47.0654 95.0234H53.2654L45.1834 82.0574C46.2786 81.5039 47.2521 80.7368 48.0464 79.8014" fill="white"/>
<path d="M78.6343 82.7044C78.6456 83.9715 78.2892 85.2147 77.6083 86.2834C76.9166 87.3702 75.9689 88.2708 74.8483 88.9064C73.6532 89.5844 72.2982 89.9297 70.9243 89.9064C69.5943 89.926 68.2843 89.5801 67.1373 88.9064C66.0361 88.2611 65.1051 87.3618 64.4223 86.2834C63.741 85.2137 63.3846 83.9695 63.3963 82.7014V61.4434H58.0583V82.7954C58.0102 85.054 58.6121 87.279 59.7923 89.2054C60.9284 91.0283 62.5361 92.5103 64.4453 93.4944C66.4472 94.5269 68.672 95.052 70.9243 95.0234C73.183 95.0502 75.4142 94.5257 77.4243 93.4954C79.3434 92.5163 80.9601 91.0337 82.1013 89.2064C83.2816 87.2796 83.8835 85.0544 83.8353 82.7954V61.4434H78.6353L78.6343 82.7044Z" fill="white"/>
<path d="M109.698 78.8921C108.886 78.178 107.989 77.568 107.027 77.0761C106.067 76.583 105.077 76.1511 104.063 75.7831C102.906 75.3298 101.811 74.8531 100.778 74.3531C99.835 73.9185 98.9776 73.3191 98.2457 72.5831C97.9319 72.2711 97.6835 71.8996 97.5151 71.4904C97.3466 71.0813 97.2615 70.6426 97.2647 70.2001C97.241 69.624 97.3573 69.0507 97.6036 68.5293C97.8498 68.0079 98.2187 67.5539 98.6787 67.2061C99.8141 66.4215 101.179 66.0376 102.557 66.1151C103.861 66.1302 105.155 66.3523 106.39 66.7731C107.697 67.1992 108.964 67.7389 110.177 68.3861L112.227 64.3471C110.83 63.4893 109.338 62.7966 107.781 62.2831C105.839 61.6818 103.813 61.3981 101.781 61.4431C99.9662 61.4719 98.1812 61.9065 96.5567 62.7151C95.1011 63.4289 93.8758 64.5378 93.0207 65.9151C92.1764 67.3494 91.7501 68.9912 91.7897 70.6551C91.7494 71.9589 92.0314 73.2524 92.6107 74.4211C93.1509 75.4418 93.9071 76.3324 94.8267 77.0311C95.7627 77.7475 96.7813 78.3492 97.8607 78.8231C98.9553 79.3078 100.005 79.7464 101.009 80.1391C101.992 80.5096 102.944 80.9573 103.857 81.4781C104.659 81.9249 105.377 82.5087 105.979 83.2031C106.532 83.8713 106.824 84.7178 106.8 85.5851C106.854 86.6037 106.528 87.6063 105.887 88.3991C105.256 89.1081 104.444 89.6321 103.538 89.9151C102.634 90.2235 101.686 90.3842 100.732 90.3911C99.767 90.3842 98.8076 90.2469 97.8797 89.9831C96.8821 89.7083 95.9115 89.3438 94.9797 88.8941C94.0967 88.476 93.2561 87.9737 92.4697 87.3941L90.0977 91.4781C91.1213 92.2159 92.2225 92.8396 93.3817 93.3381C94.5957 93.8621 95.8558 94.2722 97.1457 94.5631C98.4853 94.8675 99.8549 95.0198 101.229 95.0171C103.297 95.0743 105.349 94.6329 107.211 93.7301C108.77 92.97 110.089 91.7933 111.021 90.3301C111.893 88.9038 112.344 87.2598 112.321 85.5881C112.355 84.2297 112.114 82.8783 111.614 81.6151C111.187 80.5752 110.532 79.6446 109.698 78.8921Z" fill="white"/>
<path d="M139.912 81.6141C139.486 80.5743 138.831 79.6437 137.996 78.8911C137.186 78.1776 136.289 77.5679 135.327 77.0761C134.367 76.5829 133.376 76.151 132.361 75.7831C131.205 75.3291 130.11 74.8524 129.076 74.3531C128.134 73.9184 127.276 73.319 126.544 72.5831C126.231 72.271 125.982 71.8995 125.814 71.4904C125.646 71.0812 125.56 70.6426 125.563 70.2001C125.54 69.6238 125.656 69.0504 125.902 68.5288C126.149 68.0073 126.518 67.5531 126.977 67.2051C128.113 66.4212 129.478 66.0381 130.855 66.1161C132.16 66.1312 133.454 66.3533 134.688 66.7741C135.995 67.1995 137.263 67.7386 138.475 68.3851L140.528 64.3471C139.131 63.4889 137.638 62.7962 136.08 62.2831C134.139 61.6818 132.113 61.3981 130.08 61.4431C128.266 61.4716 126.481 61.9058 124.856 62.7141C123.401 63.428 122.176 64.5369 121.32 65.9141C120.476 67.349 120.049 68.9915 120.088 70.6561C120.048 71.9602 120.33 73.2541 120.909 74.4231C121.449 75.443 122.204 76.3332 123.122 77.0321C124.059 77.7481 125.077 78.3494 126.156 78.8231C127.251 79.3071 128.3 79.7458 129.304 80.1391C130.289 80.5092 131.242 80.9566 132.155 81.4771C132.958 81.9242 133.676 82.5079 134.277 83.2021C134.831 83.8703 135.123 84.7168 135.098 85.5841C135.152 86.6027 134.827 87.6052 134.185 88.3981C133.555 89.1084 132.743 89.6338 131.836 89.9181C130.933 90.2265 129.985 90.3872 129.03 90.3941C128.066 90.387 127.106 90.2498 126.178 89.9861C125.181 89.7114 124.21 89.3469 123.278 88.8971C122.396 88.4789 121.556 87.9765 120.769 87.3971L118.396 91.4811C119.421 92.219 120.522 92.843 121.681 93.3421C122.896 93.8659 124.156 94.276 125.445 94.5671C126.785 94.8713 128.155 95.0236 129.528 95.0211C131.596 95.0754 133.646 94.6319 135.505 93.7281C137.065 92.9681 138.384 91.7913 139.315 90.3281C140.188 88.9019 140.638 87.2578 140.615 85.5861C140.649 84.2287 140.409 82.8784 139.908 81.6161" fill="white"/>
<path d="M82.2307 46.4852H72.7617V7.06721L82.2307 14.2072V46.4852ZM59.0307 14.2082L68.4997 7.06821V46.4852H59.0307V14.2082ZM70.6307 0.116211L54.7607 12.0812V50.7512H86.4967V12.0812L70.6307 0.116211Z" fill="white"/>
</svg>
